<svg width="49" height="49" viewBox="0 0 49 49" fill="none" xmlns="http://www.w3.org/2000/svg">
<path d="M39.4961 48.2689H0.575856V9.43785L8.25279 1.76092V34.9681L42.6205 0.60045L48.2443 6.31352L13.8766 40.6812H47.1731L39.4961 48.2689Z" fill="white"/>
<path d="M39.4961 48.2689L40.7664 49.5541L40.2384 50.0759H39.4961V48.2689ZM0.575855 48.2689V50.0759H-1.23116V48.2689H0.575855ZM0.575855 9.43785H-1.23116V8.68936L-0.701897 8.1601L0.575855 9.43785ZM8.25279 1.76092L6.97504 0.483164L10.0598 -2.60161V1.76092H8.25279ZM8.25279 34.9681L9.53055 36.2459L6.44578 39.3307V34.9681H8.25279ZM42.6205 0.600451L41.3427 -0.677305L42.6306 -1.96516L43.9082 -0.667204L42.6205 0.600451ZM48.2443 6.31352L49.532 5.04586L50.7898 6.32354L49.522 7.59127L48.2443 6.31352ZM13.8766 40.6812V42.4882H9.51407L12.5988 39.4034L13.8766 40.6812ZM47.1731 40.6812V38.8742H51.5719L48.4433 41.9664L47.1731 40.6812ZM39.4961 50.0759H0.575855V46.4618H39.4961V50.0759ZM-1.23116 48.2689V9.43785H2.38287V48.2689H-1.23116ZM-0.701897 8.1601L6.97504 0.483164L9.53055 3.03867L1.85361 10.7156L-0.701897 8.1601ZM10.0598 1.76092V34.9681H6.44578V1.76092H10.0598ZM6.97504 33.6904L41.3427 -0.677305L43.8982 1.8782L9.53055 36.2459L6.97504 33.6904ZM43.9082 -0.667204L49.532 5.04586L46.9565 7.58117L41.3327 1.8681L43.9082 -0.667204ZM49.522 7.59127L15.1544 41.9589L12.5988 39.4034L46.9665 5.03577L49.522 7.59127ZM13.8766 38.8742H47.1731V42.4882H13.8766V38.8742ZM48.4433 41.9664L40.7664 49.5541L38.2259 46.9837L45.9028 39.396L48.4433 41.9664Z" fill="black"/>
</svg>
