<svg width="252" height="48" viewBox="0 0 252 48" fill="none" xmlns="http://www.w3.org/2000/svg">
<g clip-path="url(#clip0_931_3125)">
<path d="M93.8404 9.57903H86.4219V5.14062H106.522V9.57903H99.1411V24.3779H93.8404V9.57903Z" fill="white"/>
<path d="M110.125 24.3779V5.14062H115.4V13.0283L124.417 5.14062H131.176L121.031 13.9287L131.582 24.3272H124.67L115.4 15.349V24.3779H110.125Z" fill="white"/>
<path d="M138.107 24.3779L131.5 5.14062H137.194L141.429 18.9377L145.449 5.14062H151.638L155.696 19.0899L159.893 5.14062H165.13L158.79 24.3272H152.449L148.366 10.9359L144.295 24.3779H138.107Z" fill="white"/>
<path d="M185.523 5.14062V9.36345H173.197V12.483H185.143V16.82H173.197V20.1424H185.675V24.3779H167.922V5.14062H185.523Z" fill="white"/>
<path d="M207.5 5.14062V9.36345H195.174V12.483H207.107V16.82H195.174V20.1424H207.652V24.3779H189.898V5.14062H207.5Z" fill="white"/>
<path d="M217.093 11.9504V24.3779H211.906V5.14062H217.372L228.595 17.4921V5.14062H233.756V24.3779H228.544L217.093 11.9504Z" fill="white"/>
<path d="M236.945 7.51192V5.93945H243.108V7.51192H240.94V13.0536H239.165V7.51192H236.945ZM246.456 5.93945L247.978 10.7837L249.55 5.93945H251.972V13.0536H250.324V7.98112L248.777 13.0536H247.28L245.759 7.98112V13.0536H244.136V5.93945H246.456Z" fill="white"/>
<path d="M90.771 34.6629C91.1212 33.9532 91.6725 33.3622 92.3561 32.9636C93.0814 32.5507 93.906 32.3446 94.7402 32.3676C95.6876 32.3355 96.6163 32.6361 97.3652 33.2172C98.0582 33.8091 98.5095 34.635 98.6333 35.5378H97.5174C97.3765 34.9235 97.0213 34.3795 96.5156 34.0034C95.979 33.6238 95.3339 33.428 94.6768 33.4455C94.0726 33.4313 93.4774 33.5944 92.9648 33.9147C92.4744 34.2236 92.0793 34.6626 91.8235 35.1828C91.5561 35.7947 91.418 36.4552 91.418 37.123C91.418 37.7908 91.5561 38.4513 91.8235 39.0632C92.0643 39.6144 92.465 40.0807 92.9736 40.4017C93.4823 40.7228 94.0756 40.8838 94.6768 40.8639C95.3294 40.8918 95.9724 40.6998 96.5029 40.3186C97.0055 39.9342 97.3595 39.3875 97.5047 38.7715H98.684C98.5524 39.6719 98.1025 40.4952 97.4159 41.0922C96.6691 41.6772 95.7389 41.9783 94.7909 41.9418C93.9567 41.9648 93.1321 41.7587 92.4069 41.3458C91.7264 40.9489 91.1758 40.363 90.8217 39.6592C90.4503 38.8653 90.2578 37.9995 90.2578 37.123C90.2578 36.2465 90.4503 35.3807 90.8217 34.5868L90.771 34.6629Z" fill="white"/>
<path d="M103.591 35.0179V36.0958H103.033C102.759 36.0746 102.485 36.1241 102.236 36.2396C101.988 36.3551 101.773 36.5327 101.613 36.7552C101.319 37.2535 101.173 37.8256 101.194 38.4038V41.9164H100.078V35.0179H101.042L101.194 36.0577C101.384 35.7474 101.645 35.4866 101.955 35.2969C102.346 35.0954 102.783 34.9993 103.223 35.0179H103.591Z" fill="white"/>
<path d="M104.441 36.6167C104.696 36.0884 105.102 35.6472 105.608 35.3486C106.123 35.048 106.71 34.8944 107.307 34.9048C107.889 34.8967 108.463 35.0317 108.981 35.2979C109.468 35.5586 109.869 35.9551 110.135 36.4392C110.427 36.9762 110.579 37.5779 110.579 38.1892C110.588 38.3455 110.588 38.5022 110.579 38.6584H105.252V38.7472C105.243 39.0455 105.293 39.3426 105.4 39.6214C105.506 39.9001 105.668 40.1547 105.874 40.3704C106.25 40.7168 106.731 40.9284 107.24 40.972C107.75 41.0156 108.259 40.8887 108.689 40.6113C109.044 40.3643 109.293 39.9932 109.387 39.5715H110.515C110.389 40.2506 110.03 40.8648 109.501 41.3088C108.936 41.7575 108.231 41.9912 107.51 41.9682C106.882 41.9851 106.261 41.8364 105.709 41.537C105.193 41.2401 104.774 40.7995 104.504 40.2689C104.19 39.7186 104.012 39.1013 103.984 38.4682C103.987 37.8235 104.144 37.1889 104.441 36.6167ZM109.437 37.758C109.422 37.4996 109.356 37.2467 109.243 37.0138C109.13 36.781 108.972 36.5728 108.778 36.4012C108.369 36.0624 107.85 35.8863 107.32 35.9066C106.811 35.905 106.319 36.09 105.937 36.4265C105.559 36.7478 105.319 37.2016 105.265 37.6946L109.437 37.758Z" fill="white"/>
<path d="M118.375 40.9029V41.9174H117.767C117.428 41.95 117.088 41.8551 116.816 41.6511C116.715 41.5447 116.638 41.419 116.588 41.2816C116.538 41.1443 116.516 40.9982 116.524 40.8522C116.267 41.2248 115.919 41.5253 115.512 41.7251C115.106 41.9249 114.655 42.0173 114.203 41.9935C113.548 42.0269 112.901 41.8393 112.365 41.4609C112.138 41.2871 111.957 41.0618 111.836 40.8037C111.714 40.5456 111.657 40.2622 111.667 39.9772C111.65 39.6736 111.706 39.3703 111.829 39.0925C111.953 38.8146 112.14 38.5702 112.377 38.3793C112.983 37.9749 113.705 37.7831 114.432 37.8341H116.473V37.3522C116.485 37.1532 116.45 36.9542 116.371 36.7713C116.291 36.5885 116.17 36.4269 116.017 36.2996C115.653 36.0261 115.203 35.8912 114.749 35.9192C114.333 35.9053 113.922 36.0156 113.569 36.2362C113.418 36.3291 113.288 36.4528 113.187 36.5991C113.087 36.7455 113.018 36.9113 112.986 37.0859H111.883C111.91 36.7726 112.005 36.4688 112.16 36.1953C112.316 35.9219 112.528 35.685 112.783 35.5007C113.376 35.0988 114.083 34.8987 114.799 34.9301C115.541 34.882 116.273 35.1127 116.854 35.5768C117.102 35.8137 117.296 36.1023 117.421 36.4222C117.546 36.7421 117.599 37.0856 117.576 37.4283V40.3957C117.576 40.738 117.729 40.9029 118.033 40.9029H118.375ZM116.473 38.7598H114.33C113.303 38.7598 112.783 39.1529 112.783 39.9138C112.779 40.0737 112.814 40.2323 112.884 40.3759C112.955 40.5194 113.06 40.6437 113.189 40.738C113.51 40.9666 113.899 41.0785 114.292 41.0551C114.873 41.0864 115.444 40.8961 115.89 40.5225C116.081 40.3397 116.232 40.1189 116.332 39.8742C116.433 39.6296 116.481 39.3666 116.473 39.1022V38.7598Z" fill="white"/>
<path d="M119.76 36.0318H118.492V35.0173H119.76V33.0391H120.864V34.9793H122.614V35.9938H120.864V40.0644C120.845 40.2863 120.908 40.5072 121.041 40.6858C121.204 40.8198 121.414 40.8836 121.624 40.8633H122.893V41.9159H121.624C121.375 41.9408 121.123 41.9156 120.883 41.8415C120.644 41.7674 120.421 41.6461 120.23 41.4847C119.929 41.0941 119.785 40.6062 119.824 40.1151L119.76 36.0318Z" fill="white"/>
<path d="M124.758 32.5453C124.873 32.6444 124.953 32.7769 124.988 32.9243C125.024 33.0716 125.012 33.2262 124.954 33.3664C124.897 33.5065 124.797 33.6251 124.668 33.7053C124.54 33.7855 124.389 33.8234 124.238 33.8135C124.144 33.8148 124.051 33.7976 123.964 33.7627C123.877 33.7279 123.798 33.6762 123.731 33.6106C123.593 33.4726 123.516 33.2856 123.516 33.0906C123.516 32.8956 123.593 32.7086 123.731 32.5707C123.798 32.5051 123.877 32.4534 123.964 32.4185C124.051 32.3837 124.144 32.3665 124.238 32.3678C124.428 32.3602 124.613 32.4235 124.758 32.5453ZM123.68 35.0182H124.796V41.9167H123.68V35.0182Z" fill="white"/>
<path d="M127.774 41.5495C127.232 41.2664 126.789 40.8238 126.506 40.2814C126.215 39.7123 126.062 39.082 126.062 38.4426C126.062 37.8032 126.215 37.1729 126.506 36.6038C126.789 36.0615 127.232 35.6189 127.774 35.3357C128.32 35.036 128.933 34.8789 129.556 34.8789C130.179 34.8789 130.792 35.036 131.338 35.3357C131.88 35.6189 132.323 36.0615 132.606 36.6038C132.89 37.1753 133.037 37.8046 133.037 38.4426C133.037 39.0806 132.89 39.71 132.606 40.2814C132.323 40.8238 131.88 41.2664 131.338 41.5495C130.789 41.8404 130.177 41.9925 129.556 41.9925C128.935 41.9925 128.323 41.8404 127.774 41.5495ZM130.754 40.6872C131.102 40.465 131.379 40.1483 131.553 39.7741C131.745 39.3789 131.845 38.9453 131.845 38.506C131.843 38.0669 131.743 37.6338 131.553 37.2379C131.411 36.9611 131.212 36.7166 130.971 36.5197C130.73 36.3227 130.451 36.1775 130.151 36.093C129.851 36.0086 129.537 35.9867 129.229 36.0288C128.92 36.0708 128.624 36.1759 128.358 36.3375C128.01 36.5541 127.732 36.8668 127.559 37.2379C127.369 37.6338 127.269 38.0669 127.267 38.506C127.267 38.9453 127.367 39.3789 127.559 39.7741C127.728 40.1511 128.006 40.469 128.358 40.6872C128.723 40.8951 129.136 41.0044 129.556 41.0044C129.976 41.0044 130.389 40.8951 130.754 40.6872Z" fill="white"/>
<path d="M139.722 35.6909C140.005 36.0161 140.219 36.3947 140.352 36.8043C140.485 37.2139 140.534 37.646 140.496 38.075V41.8793H139.38V38.113C139.425 37.5311 139.253 36.9532 138.898 36.4898C138.727 36.2948 138.514 36.1419 138.274 36.0429C138.034 35.944 137.775 35.9016 137.516 35.9192C137.225 35.9062 136.934 35.9614 136.668 36.0803C136.401 36.1991 136.167 36.3784 135.982 36.604C135.59 37.1342 135.397 37.7849 135.436 38.4427V41.9174H134.32V35.0188H135.284L135.436 35.9445C135.972 35.3443 136.724 34.9806 137.527 34.9331C138.33 34.8855 139.12 35.158 139.722 35.6909Z" fill="white"/>
<path d="M142.842 39.6475C142.848 39.8488 142.901 40.0457 142.998 40.2221C143.095 40.3986 143.233 40.5493 143.4 40.662C143.776 40.9002 144.209 41.035 144.654 41.0528C145.099 41.0706 145.542 40.9708 145.936 40.7634C146.073 40.6858 146.187 40.5734 146.268 40.4377C146.348 40.3019 146.391 40.1475 146.392 39.9899C146.404 39.7626 146.327 39.5397 146.177 39.3685C146.021 39.2225 145.828 39.1217 145.619 39.0769C145.378 39.0769 145.061 38.9627 144.63 38.912C144.137 38.8578 143.649 38.7645 143.171 38.633C142.818 38.5277 142.499 38.3308 142.246 38.0624C142.004 37.7669 141.881 37.3912 141.903 37.0098C141.898 36.619 142.018 36.2368 142.246 35.9192C142.488 35.5953 142.812 35.3414 143.184 35.1837C143.608 35.0007 144.066 34.9099 144.528 34.9174C145.233 34.8851 145.928 35.0857 146.507 35.4881C146.758 35.6802 146.964 35.9251 147.111 36.2055C147.258 36.486 147.342 36.7951 147.356 37.1113H146.24C146.22 36.9352 146.164 36.7652 146.074 36.6123C145.985 36.4594 145.864 36.327 145.72 36.2236C145.387 35.9787 144.98 35.8536 144.566 35.8685C144.166 35.8522 143.769 35.9536 143.425 36.1602C143.292 36.237 143.182 36.3481 143.106 36.4819C143.03 36.6157 142.991 36.7673 142.994 36.9211C142.986 37.0213 143 37.1221 143.035 37.2163C143.07 37.3106 143.125 37.3959 143.197 37.4663C143.341 37.6002 143.522 37.6884 143.717 37.72C144.035 37.7877 144.357 37.8385 144.681 37.8721C145.187 37.9241 145.688 38.0217 146.177 38.1638C146.545 38.2739 146.874 38.4847 147.128 38.7725C147.382 39.0968 147.508 39.5028 147.483 39.9138C147.494 40.3073 147.368 40.6925 147.128 41.0044C146.867 41.3308 146.526 41.5841 146.139 41.7399C145.559 41.9562 144.936 42.0356 144.32 41.9718C143.705 41.908 143.112 41.7028 142.588 41.3721C142.319 41.1744 142.102 40.914 141.956 40.6134C141.81 40.3129 141.74 39.9814 141.751 39.6475H142.842Z" fill="white"/>
<path d="M152.87 36.0318H151.602V35.0173H152.87V33.0391H153.986V34.9793H155.723V35.9938H153.986V40.0644C153.963 40.2847 154.022 40.5055 154.15 40.6858C154.314 40.8198 154.524 40.8836 154.734 40.8633H156.002V41.9159H154.734C154.486 41.942 154.236 41.9173 153.998 41.8431C153.76 41.769 153.54 41.647 153.352 41.4847C153.041 41.0989 152.892 40.6085 152.933 40.1151L152.87 36.0318Z" fill="white"/>
<path d="M162.22 35.6897C162.497 36.0174 162.707 36.3967 162.838 36.8058C162.968 37.215 163.017 37.6459 162.98 38.0738V41.8781H161.877V38.1118C161.918 37.5283 161.742 36.9502 161.383 36.4886C161.209 36.2934 160.993 36.1405 160.751 36.0416C160.51 35.9426 160.248 35.9004 159.988 35.918C159.698 35.907 159.41 35.9632 159.146 36.082C158.883 36.2008 158.65 36.379 158.466 36.6028C158.07 37.1313 157.873 37.7822 157.908 38.4415V41.9162H156.805V32.4434H157.908V36.1463C158.139 35.7908 158.446 35.4918 158.808 35.2713C159.225 35.0336 159.699 34.9151 160.178 34.9289C160.552 34.9122 160.925 34.971 161.276 35.1017C161.627 35.2325 161.948 35.4324 162.22 35.6897Z" fill="white"/>
<path d="M170.926 40.9029V41.9174H170.318C169.979 41.95 169.64 41.8551 169.367 41.6511C169.266 41.5447 169.189 41.419 169.139 41.2816C169.089 41.1443 169.067 40.9982 169.075 40.8522C168.818 41.2248 168.47 41.5253 168.063 41.7251C167.657 41.9249 167.206 42.0173 166.754 41.9935C166.095 42.0249 165.444 41.8376 164.903 41.4609C164.678 41.2857 164.498 41.0601 164.377 40.8023C164.256 40.5446 164.197 40.2619 164.205 39.9772C164.191 39.6738 164.247 39.3712 164.37 39.0937C164.494 38.8162 164.68 38.5715 164.916 38.3793C165.527 37.9766 166.253 37.785 166.983 37.8341H169.012V37.3522C169.02 37.1548 168.985 36.9579 168.908 36.7759C168.832 36.5938 168.715 36.4312 168.568 36.2996C168.203 36.0281 167.754 35.8934 167.3 35.9192C166.88 35.9073 166.466 36.0174 166.108 36.2362C165.814 36.4341 165.609 36.739 165.537 37.0859H164.434C164.461 36.774 164.555 36.4715 164.708 36.1983C164.861 35.9251 165.07 35.6874 165.321 35.5007C165.919 35.0987 166.63 34.8987 167.35 34.9301C168.092 34.882 168.825 35.1127 169.405 35.5768C169.653 35.8137 169.847 36.1023 169.972 36.4222C170.097 36.7421 170.15 37.0856 170.128 37.4283V40.3957C170.128 40.738 170.28 40.9029 170.584 40.9029H170.926ZM169.012 38.7598H166.881C165.854 38.7598 165.334 39.1529 165.334 39.9138C165.33 40.0737 165.365 40.2323 165.435 40.3759C165.506 40.5194 165.611 40.6437 165.74 40.738C166.056 40.9666 166.441 41.0787 166.83 41.0551C167.412 41.0903 167.984 40.8995 168.428 40.5225C168.621 40.3412 168.773 40.1207 168.874 39.8756C168.975 39.6306 169.022 39.3669 169.012 39.1022V38.7598Z" fill="white"/>
<path d="M172.315 36.0318H171.047V35.0173H172.315V33.0391H173.418V34.9793H175.168V35.9938H173.418V40.0644C173.402 40.2841 173.461 40.5028 173.583 40.6858C173.752 40.8193 173.965 40.8829 174.179 40.8633H175.447V41.9159H174.179C173.93 41.9423 173.677 41.9177 173.437 41.8436C173.198 41.7695 172.975 41.6474 172.784 41.4847C172.479 41.097 172.333 40.6068 172.378 40.1151L172.315 36.0318Z" fill="white"/>
<path d="M189.431 35.6657C189.694 35.9779 189.894 36.3391 190.018 36.7286C190.142 37.1181 190.188 37.5283 190.153 37.9356V41.9175H189.05V38.0117C189.083 37.4663 188.931 36.9259 188.619 36.4773C188.468 36.2902 188.274 36.1435 188.052 36.0505C187.831 35.9575 187.59 35.9211 187.351 35.9447C187.091 35.9317 186.831 35.9801 186.594 36.0858C186.356 36.1915 186.146 36.3517 185.981 36.5534C185.624 37.0352 185.448 37.6284 185.487 38.2273V41.9175H184.383V38.0117C184.416 37.4663 184.264 36.9259 183.952 36.4773C183.799 36.2936 183.604 36.1493 183.383 36.0566C183.162 35.964 182.923 35.9256 182.684 35.9447C182.424 35.935 182.166 35.9888 181.932 36.1015C181.698 36.2142 181.495 36.3824 181.34 36.5914C181.001 37.0864 180.831 37.6784 180.858 38.278V41.9175H179.742V35.0189H180.706L180.858 35.9573C181.081 35.6308 181.383 35.3657 181.735 35.1862C182.087 35.0067 182.479 34.9187 182.874 34.9302C183.318 34.9333 183.754 35.0466 184.143 35.2599C184.523 35.4914 184.821 35.8377 184.992 36.249C185.211 35.8992 185.504 35.6018 185.851 35.3779C186.198 35.154 186.59 35.0091 186.999 34.9534C187.408 34.8978 187.824 34.9327 188.218 35.0558C188.612 35.1789 188.974 35.3871 189.278 35.6657H189.431Z" fill="white"/>
<path d="M198.106 40.9022V41.9167H197.497C197.158 41.9493 196.819 41.8543 196.546 41.6504C196.345 41.4335 196.236 41.1471 196.242 40.8514C195.987 41.223 195.641 41.523 195.237 41.7228C194.833 41.9226 194.384 42.0156 193.934 41.9927C193.275 42.0261 192.623 41.8386 192.083 41.4601C191.858 41.285 191.678 41.0594 191.557 40.8016C191.435 40.5438 191.377 40.2611 191.385 39.9764C191.37 39.6731 191.427 39.3705 191.55 39.093C191.673 38.8155 191.86 38.5708 192.095 38.3786C192.706 37.9758 193.432 37.7843 194.162 37.8333H196.191V37.3514C196.203 37.1525 196.168 36.9535 196.089 36.7706C196.01 36.5877 195.888 36.4261 195.735 36.2989C195.372 36.0223 194.922 35.887 194.467 35.9185C194.047 35.9065 193.633 36.0167 193.275 36.2355C192.981 36.4334 192.776 36.7383 192.704 37.0851H191.588C191.618 36.7724 191.714 36.4696 191.869 36.1964C192.024 35.9233 192.235 35.686 192.488 35.5C193.086 35.0963 193.797 34.8961 194.517 34.9293C195.255 34.8845 195.982 35.115 196.559 35.5761C196.808 35.813 197.001 36.1016 197.126 36.4215C197.251 36.7414 197.304 37.0848 197.282 37.4275V40.3949C197.282 40.7373 197.434 40.9022 197.738 40.9022H198.106ZM196.191 38.759H194.023C192.983 38.759 192.476 39.1522 192.476 39.913C192.472 40.073 192.506 40.2316 192.577 40.3751C192.648 40.5187 192.752 40.643 192.882 40.7373C193.197 40.9659 193.583 41.0779 193.972 41.0543C194.554 41.0896 195.126 40.8988 195.57 40.5217C195.763 40.3405 195.915 40.1199 196.016 39.8749C196.116 39.6299 196.163 39.3661 196.153 39.1014L196.191 38.759Z" fill="white"/>
<path d="M199.471 36.0318H198.203V35.0173H199.471V33.0391H200.587V34.9793H202.337V35.9938H200.587V40.0644C200.565 40.2847 200.624 40.5055 200.752 40.6858C200.921 40.8193 201.134 40.8829 201.348 40.8633H202.553V41.9159H201.285C201.037 41.9413 200.787 41.9162 200.549 41.8421C200.312 41.768 200.092 41.6464 199.902 41.4847C199.592 41.0989 199.442 40.6085 199.484 40.1151L199.471 36.0318Z" fill="white"/>
<path d="M203.405 33.0391H204.509V34.9793H206.259V35.9938H204.509V40.0644C204.49 40.2863 204.553 40.5072 204.686 40.6858C204.849 40.8198 205.059 40.8836 205.269 40.8633H206.474V41.9159H205.206C204.958 41.942 204.708 41.9173 204.47 41.8431C204.233 41.769 204.013 41.647 203.824 41.4847C203.514 41.0989 203.364 40.6085 203.405 40.1151V33.0391Z" fill="white"/>
<path d="M207.324 36.6167C207.579 36.0922 207.98 35.652 208.478 35.3486C208.998 35.0481 209.589 34.8947 210.19 34.9048C210.771 34.8982 211.346 35.0331 211.864 35.2979C212.348 35.5626 212.748 35.9581 213.018 36.4392C213.304 36.9785 213.456 37.5787 213.462 38.1892C213.462 38.278 213.462 38.4428 213.462 38.6584H208.097V38.7472C208.089 39.3478 208.311 39.9288 208.719 40.3703C209.098 40.7158 209.581 40.9266 210.092 40.9702C210.603 41.0138 211.114 40.8876 211.547 40.6113C211.894 40.3569 212.14 39.989 212.244 39.5714H213.36C213.244 40.2545 212.883 40.872 212.346 41.3088C211.782 41.7595 211.076 41.9934 210.355 41.9682C209.727 41.9838 209.106 41.8352 208.554 41.537C208.042 41.2394 207.627 40.7986 207.362 40.2689C207.071 39.6956 206.923 39.0604 206.931 38.4174C206.916 37.7944 207.051 37.177 207.324 36.6167ZM212.308 37.758C212.298 37.4984 212.235 37.2436 212.121 37.0099C212.008 36.7762 211.847 36.5689 211.648 36.4011C211.244 36.0632 210.729 35.887 210.202 35.9066C209.693 35.9013 209.2 36.0868 208.82 36.4265C208.443 36.7496 208.199 37.2016 208.135 37.6946L212.308 37.758Z" fill="white"/>
<path d="M218.305 35.0179V36.0958H217.747C217.475 36.073 217.202 36.122 216.955 36.2377C216.708 36.3534 216.496 36.5318 216.339 36.7552C216.035 37.2499 215.885 37.8237 215.908 38.4038V41.9164H214.805V35.0179H215.756L215.908 36.0577C216.102 35.7469 216.367 35.4862 216.681 35.2969C217.073 35.0954 217.51 34.9993 217.95 35.0179H218.305Z" fill="white"/>
<path d="M218.724 40.6492C218.799 40.5797 218.886 40.526 218.982 40.4911C219.078 40.4563 219.18 40.441 219.282 40.4463C219.384 40.4417 219.485 40.4573 219.581 40.4921C219.677 40.5269 219.765 40.5803 219.84 40.6492C219.912 40.7229 219.968 40.8103 220.005 40.9062C220.042 41.0021 220.059 41.1045 220.055 41.2072C220.057 41.3078 220.039 41.4079 220.002 41.5015C219.965 41.5951 219.91 41.6804 219.84 41.7525C219.765 41.8214 219.677 41.8748 219.581 41.9096C219.485 41.9444 219.384 41.96 219.282 41.9554C219.181 41.9626 219.079 41.9484 218.984 41.9137C218.888 41.879 218.801 41.8245 218.728 41.754C218.655 41.6834 218.598 41.5982 218.56 41.504C218.522 41.4098 218.505 41.3087 218.508 41.2072C218.505 41.1045 218.522 41.0021 218.559 40.9062C218.596 40.8103 218.652 40.7229 218.724 40.6492Z" fill="white"/>
<path d="M40.846 21.4995C41.3808 21.4995 41.8936 21.2871 42.2718 20.909C42.6499 20.5308 42.8623 20.018 42.8623 19.4832V8.42524C42.8623 7.3278 42.6462 6.24111 42.2262 5.2272C41.8062 4.2133 41.1907 3.29204 40.4146 2.51603C39.6386 1.74003 38.7174 1.12446 37.7035 0.704489C36.6896 0.284517 35.6029 0.0683594 34.5054 0.0683594L2.0163 0.0683594C1.48155 0.0683594 0.968692 0.280791 0.590562 0.658921C0.212431 1.03705 0 1.54991 0 2.08466L0 19.4832C0 20.018 0.212431 20.5308 0.590562 20.909C0.968692 21.2871 1.48155 21.4995 2.0163 21.4995H40.846Z" fill="white"/>
<path d="M23.2159 47.1163H41.0709C41.5451 47.1163 41.9999 46.9279 42.3353 46.5926C42.6706 46.2573 42.859 45.8025 42.859 45.3282V28.0565C42.8626 27.778 42.8007 27.5026 42.6783 27.2525C42.5558 27.0024 42.3762 26.7846 42.154 26.6167C41.9318 26.4488 41.6732 26.3355 41.3992 26.2861C41.1251 26.2366 40.8432 26.2523 40.5764 26.3319L22.7213 31.4043C22.3521 31.5165 22.0292 31.7451 21.8006 32.0559C21.5721 32.3667 21.4502 32.7432 21.4532 33.129V45.3536C21.4597 45.8191 21.6476 46.2636 21.9767 46.5928C22.3059 46.9219 22.7504 47.1097 23.2159 47.1163Z" fill="white"/>
<path d="M54.4529 1.44942L48.4271 7.47521C46.5948 9.30756 46.5948 12.2784 48.4271 14.1107L54.4529 20.1365C56.2853 21.9689 59.2561 21.9689 61.0884 20.1365L67.1142 14.1107C68.9466 12.2784 68.9466 9.30755 67.1142 7.4752L61.0885 1.44942C59.2561 -0.382928 56.2853 -0.382927 54.4529 1.44942Z" fill="white"/>
</g>
<defs>
<clipPath id="clip0_931_3125">
<rect width="252" height="47.0471" fill="white" transform="translate(0 0.0683594)"/>
</clipPath>
</defs>
</svg>
