<svg width="72" height="64" viewBox="0 0 72 64" fill="none" xmlns="http://www.w3.org/2000/svg">
<path fill-rule="evenodd" clip-rule="evenodd" d="M8.41097 9.97278L0 19.9458L3.23843 23.9649C27.1606 53.6569 35.6995 64.1458 35.8287 63.9985C37.5787 62.0029 71.0669 20.2148 71.0857 20.0033C71.1003 19.8372 67.3829 15.2685 62.8245 9.85067L54.5363 0H35.6791H16.8217L8.41097 9.97278ZM26.2034 9.84425C21.9763 14.1636 18.4804 17.6975 18.4346 17.6975C18.3891 17.6975 18.3517 14.1636 18.3517 9.84425V1.99097H26.1204H33.889L26.2034 9.84425ZM52.6406 9.77567V17.5604L50.3731 15.3544C49.1261 14.141 45.5236 10.6378 42.3674 7.56968L36.6295 1.99097H44.6349H52.6406V9.77567ZM61.1481 10.8395C64.7424 15.0978 67.6835 18.6317 67.6835 18.6928C67.6835 18.7539 64.6971 18.8036 61.047 18.8036H54.4104V10.9503C54.4104 6.63104 54.4557 3.09707 54.5115 3.09707C54.567 3.09707 57.5535 6.58127 61.1481 10.8395ZM46.2815 14.1074L51.0939 18.8036H35.6926H20.2911L21.1333 17.8634C21.5963 17.3462 24.9615 13.8603 28.6114 10.1166L35.2477 3.3101L38.3583 6.36049C40.0692 8.03844 43.6346 11.5244 46.2815 14.1074ZM16.2864 18.7304C16.2424 18.7744 13.3619 18.7842 9.8854 18.7519L3.56472 18.693L9.9073 11.1665L16.2501 3.63994L16.3083 11.145C16.3404 15.273 16.3306 18.6864 16.2864 18.7304ZM23.5547 36.7777C32.2761 57.1905 31.9655 56.4374 31.3757 55.7472C30.4205 54.6296 3.60875 21.3386 3.44836 21.0711C3.31718 20.8523 4.68608 20.7946 10.0044 20.7946H16.7262L23.5547 36.7777ZM51.9042 21.1076C50.6842 24.2868 35.4793 59.4624 35.3765 59.3436C35.1884 59.1263 19.0116 21.1791 19.0138 20.9605C19.0147 20.8694 26.4423 20.7946 35.5198 20.7946C49.6577 20.7946 52.0071 20.8395 51.9042 21.1076ZM67.8616 21.1817C67.6785 21.3948 61.0784 29.5825 53.195 39.377C45.3116 49.1715 38.7671 57.2847 38.6516 57.4064C38.5362 57.528 38.5855 57.2792 38.7613 56.8533C39.6987 54.5845 53.8293 21.5094 54.0014 21.1817C54.1885 20.8256 54.7628 20.7946 61.1996 20.7946C67.8408 20.7946 68.1777 20.8141 67.8616 21.1817Z" fill="white"/>
</svg>
