<svg width="109" height="21" viewBox="0 0 109 21" fill="none" xmlns="http://www.w3.org/2000/svg">
<g clip-path="url(#clip0_814_3592)">
<path d="M40.5896 4.11412H37.3809V2.19434H46.0747V4.11412H42.8824V10.5152H40.5896V4.11412Z" fill="white"/>
<path d="M47.6328 10.5152V2.19434H49.9146V5.60607L53.8145 2.19434H56.7381L52.35 5.99551L56.9136 10.4933H53.9242L49.9146 6.60985V10.5152H47.6328Z" fill="white"/>
<path d="M59.7386 10.5152L56.8809 2.19434H59.3437L61.1757 8.16213L62.9145 2.19434H65.5912L67.3464 8.22795L69.162 2.19434H71.4274L68.6848 10.4933H65.9423L64.1761 4.70103L62.4153 10.5152H59.7386Z" fill="white"/>
<path d="M80.2471 2.19434V4.02088H74.9156V5.37021H80.0826V7.24612H74.9156V8.68322H80.3129V10.5152H72.6338V2.19434H80.2471Z" fill="white"/>
<path d="M89.753 2.19434V4.02088H84.4215V5.37021H89.5829V7.24612H84.4215V8.68322H89.8188V10.5152H82.1396V2.19434H89.753Z" fill="white"/>
<path d="M93.8997 5.13984V10.5152H91.6562V2.19434H94.0203L98.8746 7.53683V2.19434H101.107V10.5152H98.8527L93.8997 5.13984Z" fill="white"/>
<path d="M102.489 3.22019V2.54004H105.155V3.22019H104.217V5.61718H103.449V3.22019H102.489ZM106.603 2.54004L107.261 4.63535L107.941 2.54004H108.989V5.61718H108.276V3.42314L107.607 5.61718H106.96L106.301 3.42314V5.61718H105.599V2.54004H106.603Z" fill="white"/>
<path d="M17.6675 9.26983C17.8988 9.26983 18.1207 9.17794 18.2842 9.01438C18.4478 8.85083 18.5397 8.629 18.5397 8.39769V3.61468C18.5397 3.14 18.4462 2.66996 18.2645 2.2314C18.0828 1.79285 17.8166 1.39437 17.4809 1.05872C17.1453 0.723062 16.7468 0.456806 16.3082 0.275151C15.8697 0.0934965 15.3997 0 14.925 0L0.872132 0C0.640828 0 0.418998 0.091885 0.255441 0.255441C0.091885 0.418998 0 0.640828 0 0.872132L0 8.39769C0 8.629 0.091885 8.85083 0.255441 9.01438C0.418998 9.17794 0.640828 9.26983 0.872132 9.26983H17.6675Z" fill="white"/>
<path d="M10.0427 20.3502H17.7658C17.9709 20.3502 18.1676 20.2688 18.3126 20.1237C18.4577 19.9787 18.5392 19.782 18.5392 19.5768V12.1061C18.5407 11.9857 18.514 11.8665 18.461 11.7584C18.408 11.6502 18.3303 11.556 18.2342 11.4833C18.1381 11.4107 18.0263 11.3617 17.9077 11.3403C17.7892 11.3189 17.6673 11.3257 17.5518 11.3602L9.82881 13.5542C9.66914 13.6027 9.52944 13.7016 9.43058 13.836C9.33172 13.9705 9.279 14.1333 9.2803 14.3002V19.5878C9.28313 19.7891 9.36437 19.9814 9.50674 20.1238C9.64912 20.2662 9.8414 20.3474 10.0427 20.3502Z" fill="white"/>
<path d="M23.5522 0.597218L20.9458 3.20361C20.1532 3.99617 20.1532 5.28117 20.9458 6.07374L23.5522 8.68013C24.3448 9.47269 25.6298 9.47269 26.4223 8.68013L29.0287 6.07374C29.8213 5.28117 29.8213 3.99617 29.0287 3.20361L26.4223 0.597218C25.6298 -0.195346 24.3448 -0.195346 23.5522 0.597218Z" fill="white"/>
</g>
<defs>
<clipPath id="clip0_814_3592">
<rect width="109" height="20.3497" fill="white"/>
</clipPath>
</defs>
</svg>
