<svg width="31" height="21" viewBox="0 0 31 21" fill="none" xmlns="http://www.w3.org/2000/svg">
<path d="M17.6675 9.26983C17.8988 9.26983 18.1207 9.17794 18.2842 9.01438C18.4478 8.85083 18.5397 8.629 18.5397 8.39769V3.61468C18.5397 3.14 18.4462 2.66996 18.2645 2.2314C18.0828 1.79285 17.8166 1.39437 17.4809 1.05872C17.1453 0.723062 16.7468 0.456806 16.3082 0.275151C15.8697 0.0934965 15.3997 0 14.925 0L0.872132 0C0.640828 0 0.418998 0.091885 0.255441 0.255441C0.091885 0.418998 0 0.640828 0 0.872132L0 8.39769C0 8.629 0.091885 8.85083 0.255441 9.01438C0.418998 9.17794 0.640828 9.26983 0.872132 9.26983H17.6675Z" fill="white"/>
<path d="M10.0427 20.3498H17.7658C17.9709 20.3498 18.1676 20.2683 18.3126 20.1232C18.4577 19.9782 18.5392 19.7815 18.5392 19.5764V12.1056C18.5407 11.9852 18.514 11.8661 18.461 11.7579C18.408 11.6497 18.3303 11.5555 18.2342 11.4829C18.1381 11.4102 18.0263 11.3613 17.9077 11.3399C17.7892 11.3185 17.6673 11.3252 17.5518 11.3597L9.82881 13.5537C9.66914 13.6022 9.52944 13.7011 9.43058 13.8355C9.33172 13.97 9.279 14.1328 9.2803 14.2997V19.5873C9.28313 19.7887 9.36437 19.9809 9.50674 20.1233C9.64912 20.2657 9.8414 20.3469 10.0427 20.3498V20.3498Z" fill="white"/>
<path d="M23.5522 0.59673L20.9458 3.20312C20.1532 3.99568 20.1532 5.28068 20.9458 6.07325L23.5522 8.67964C24.3448 9.4722 25.6298 9.4722 26.4223 8.67964L29.0287 6.07325C29.8213 5.28068 29.8213 3.99568 29.0287 3.20312L26.4223 0.59673C25.6298 -0.195835 24.3448 -0.195835 23.5522 0.59673Z" fill="white"/>
</svg>
