<svg width="466" height="213" viewBox="0 0 466 213" fill="none" xmlns="http://www.w3.org/2000/svg">
<path d="M244.185 16.4288V16.4294V57.515C244.185 57.515 244.185 57.5151 244.185 57.5152C244.185 59.4062 244.556 61.279 245.28 63.0263C246.003 64.7737 247.063 66.3615 248.4 67.6991C249.737 69.0366 251.325 70.0976 253.072 70.8214C254.819 71.5453 256.691 71.9179 258.583 71.9179L306.652 71.9179C306.652 71.9179 306.653 71.9179 306.653 71.9179C306.886 71.9193 307.112 71.9894 307.305 72.1193C307.498 72.2495 307.647 72.434 307.735 72.6495C307.823 72.8649 307.845 73.1016 307.799 73.3296C307.752 73.5574 307.639 73.7663 307.474 73.9299C307.474 73.93 307.473 73.9301 307.473 73.9302L240.294 139.646C240.294 139.647 240.294 139.647 240.293 139.647C240.072 139.86 239.778 139.979 239.471 139.979H182.791C178.972 139.979 175.31 141.496 172.61 144.196L172.964 144.55L172.61 144.196C169.91 146.896 168.393 150.558 168.393 154.377V197.862C168.393 201.681 169.91 205.343 172.61 208.043C175.31 210.743 178.972 212.26 182.791 212.26H226.255C230.073 212.26 233.735 210.743 236.435 208.043C239.135 205.343 240.652 201.681 240.652 197.862V144.445C240.653 144.134 240.777 143.837 240.996 143.617C241.216 143.397 241.514 143.274 241.824 143.273H454.163C455.652 143.273 457.127 142.979 458.503 142.409C459.879 141.839 461.129 141.003 462.182 139.95C463.235 138.896 464.07 137.646 464.64 136.27C465.209 134.893 465.502 133.418 465.501 131.929V82.3571C465.502 80.8679 465.209 79.393 464.64 78.0167C464.07 76.6405 463.235 75.3899 462.182 74.3365C461.129 73.2831 459.879 72.4474 458.503 71.8773C457.127 71.3071 455.652 71.0137 454.163 71.0137H313.323C313.012 71.0127 312.714 70.8889 312.495 70.6693C312.275 70.4496 312.151 70.152 312.15 69.8414V16.4294V16.4286C312.145 12.6174 310.628 8.9638 307.934 6.26831C305.239 3.57282 301.587 2.0552 297.775 2.04791H297.774L258.561 2.04791L258.561 2.04791C254.749 2.05375 251.095 3.57092 248.4 6.26676C245.705 8.9626 244.19 12.6171 244.185 16.4288Z" stroke="#B7B7B7"/>
<path d="M157.494 71.1896H113.695C105.935 71.1896 99.6436 77.4808 99.6436 85.2412V129.041C99.6436 136.801 105.935 143.092 113.695 143.092H157.494C165.255 143.092 171.546 136.801 171.546 129.041V85.2412C171.546 77.4808 165.255 71.1896 157.494 71.1896Z" stroke="#B7B7B7"/>
<path d="M49.7953 0.499817H12.5298C5.88591 0.499817 0.5 5.88573 0.5 12.5296V49.7952C0.5 56.439 5.88591 61.8249 12.5298 61.8249H49.7953C56.4392 61.8249 61.8251 56.439 61.8251 49.7952V12.5296C61.8251 5.88573 56.4392 0.499817 49.7953 0.499817Z" stroke="#B7B7B7"/>
</svg>
