<svg width="62" height="73" viewBox="0 0 62 73" fill="none" xmlns="http://www.w3.org/2000/svg">
<path d="M53.4627 69.3349C51.0971 65.1606 48.4154 60.4293 48.7842 56.2173C49.2721 50.6406 51.0193 47.8673 55.0081 43.3882C59.3655 38.4964 65.1592 26.9354 59.2376 14.6644C53.2069 2.17147 36.808 -1.24653 27.6264 0.376552C21.0613 1.53805 15.7104 5.49164 11.738 12.1144C10.5439 14.0272 6.78351 23.6415 7.05318 25.9445C7.07074 26.0975 7.09081 26.2468 7.10963 26.3935C7.26642 27.5688 7.36049 28.275 6.31565 29.4854C5.54299 30.3785 4.81047 31.1223 4.11558 31.841C3.42069 32.5597 2.77723 33.2119 2.1438 33.957C2.01837 34.1025 1.89294 34.2468 1.76751 34.391C0.592219 35.7294 -1.01706 37.5644 0.860642 39.6127C1.6772 40.5033 2.56776 40.8595 3.21875 41.1179C3.42662 41.1913 3.62731 41.2837 3.81831 41.3938C3.81743 41.4271 3.81407 41.4602 3.80828 41.4929C3.74807 41.8692 3.55741 42.0988 3.31909 42.391C2.90392 42.9003 2.27551 43.6692 2.79354 45.1003C3.12342 46.0097 3.57623 46.5603 3.99768 46.8927C3.58501 47.6679 3.2338 48.7805 3.95252 49.6271C4.16052 49.8649 4.38565 50.0871 4.62609 50.2919C5.0513 50.6682 5.0513 50.6682 4.96726 50.9015C4.9196 51.027 4.82051 51.2402 4.70511 51.4823C4.01273 52.9536 2.55271 56.0103 4.69257 58.7021C7.28523 61.9633 14.5289 61.0602 15.7543 60.7604C15.9851 60.7027 16.2034 60.635 16.4078 60.5798C16.7139 60.492 17.1328 60.3691 17.2244 60.3841C17.2332 60.3917 17.4289 60.5798 17.5543 61.6384C17.8616 64.2725 19.5612 69.4729 20.3702 71.9727L20.7039 73H55.491L54.8124 71.757C54.3872 70.9668 53.9344 70.159 53.4627 69.3349ZM21.9306 71.3142C21.1178 68.8181 19.5135 63.8661 19.23 61.4453C19.0745 60.1082 18.7547 59.3706 18.1639 58.9793C17.4615 58.5127 16.6863 58.7385 15.9362 58.9567C15.7531 59.0107 15.5599 59.0671 15.3517 59.1185C13.469 59.5801 7.74807 59.831 6.01963 57.6497C4.53578 55.7833 5.59943 53.5456 6.23537 52.2098C6.36833 51.9275 6.48623 51.6842 6.55898 51.4772C7.02308 50.1728 6.25544 49.4841 5.74493 49.0313C5.56614 48.8792 5.39847 48.7145 5.24321 48.5384C5.16168 48.3628 5.44641 47.6428 5.88291 47.0846L7.09583 45.6685L5.31094 45.72C5.20307 45.6873 4.7327 45.4942 4.38275 44.5271C4.19084 43.9978 4.27488 43.8999 4.63361 43.4622C4.9359 43.0934 5.34857 42.5842 5.48278 41.7664C5.7211 40.3001 4.59724 39.8498 3.85218 39.5525C3.29652 39.3305 2.66811 39.0796 2.11245 38.4725C1.35986 37.6547 1.63706 37.1053 3.04189 35.5048C3.17485 35.3531 3.30655 35.2025 3.43575 35.0508C4.0328 34.3509 4.66372 33.7036 5.33101 33.02C6.04973 32.2825 6.79354 31.5211 7.60006 30.5892C9.13409 28.8068 8.95597 27.4697 8.77912 26.1702C8.76156 26.0323 8.74274 25.8918 8.72518 25.7488C8.53453 24.0831 11.9575 14.9504 13.178 12.9962C16.897 6.79738 21.8578 3.11095 27.9199 2.03977C36.5973 0.501983 52.0654 3.69045 57.7174 15.3982C63.2527 26.8676 57.8265 37.6823 53.7475 42.2656C49.5781 46.9479 47.6302 50.0524 47.0996 56.0693C46.6857 60.8031 49.5041 65.7777 51.9914 70.1678C52.2097 70.5533 52.4258 70.9354 52.6399 71.3142H21.9306Z" fill="white"/>
</svg>
