<svg width="119" height="59" viewBox="0 0 119 59" fill="none" xmlns="http://www.w3.org/2000/svg">
<path fill-rule="evenodd" clip-rule="evenodd" d="M1.81066 0.0838563C1.55618 0.33538 1.3384 1.15757 1.11503 2.70969C0.938077 3.93944 0.874287 4.50791 0.720858 6.22348C0.535187 8.29922 0.348075 11.4471 0.239531 14.3205C0.214475 14.9837 0.174647 16.0303 0.151073 16.6462C0.0290199 19.8291 0 22.284 0 29.4162C0 36.5483 0.0290199 39.0033 0.151073 42.1862C0.174647 42.8021 0.214475 43.8486 0.239531 44.5117C0.38494 48.3618 0.646736 52.2585 0.920905 54.6549C1.37713 58.6416 1.91694 59.8189 2.43766 57.9628C2.59117 57.4159 2.83345 55.987 2.94025 54.9991C3.08514 53.659 3.12074 53.3036 3.17751 52.6302C3.44903 49.4114 3.63187 45.957 3.76804 41.4755C3.89662 37.2428 3.92173 35.2739 3.92173 29.4162C3.92173 23.5584 3.89662 21.5896 3.76804 17.3568C3.63187 12.8753 3.44903 9.42097 3.17751 6.20196C3.12074 5.52897 3.08514 5.17359 2.94025 3.83315C2.78578 2.40429 2.49361 0.894848 2.26929 0.366692C2.18632 0.171331 2.03864 0 1.95328 0C1.92152 0 1.85733 0.0377294 1.81066 0.0838563ZM8.27017 0.0437158C7.87198 0.202167 7.41078 1.16493 7.04257 2.60654C6.65102 4.1395 6.23622 6.71362 5.94965 9.38907C4.73385 20.7389 4.73385 38.0935 5.94965 49.4433C6.40363 53.6811 7.04674 56.8693 7.6973 58.107C8.01354 58.7085 8.33036 58.925 8.66495 58.768C9.44051 58.4042 10.2157 55.5283 10.7836 50.9077C10.9593 49.4784 11.0261 48.836 11.1755 47.1392C11.3871 44.7362 11.4793 43.2879 11.6582 39.559C11.7392 37.8701 11.7827 36.1779 11.8331 32.7648C11.8969 28.4447 11.8223 22.6967 11.6582 19.2734C11.4793 15.5445 11.3871 14.096 11.1755 11.6933C11.0261 9.99637 10.9593 9.35381 10.7836 7.92472C10.4065 4.85632 9.922 2.46437 9.42718 1.22747C9.03101 0.237095 8.68187 -0.120076 8.27017 0.0437158ZM17.5319 0.0395781C17.3701 0.091261 17.0468 0.317377 16.9173 0.469454C16.4885 0.973189 16.0571 1.83991 15.6836 2.94825C15.4406 3.6694 15.4068 3.78513 15.1606 4.73761C14.7848 6.19216 14.3662 8.44139 14.0985 10.4442C14.0479 10.8233 13.9787 11.3369 13.9448 11.5856C13.9109 11.8343 13.8617 12.2413 13.8353 12.49C13.809 12.7388 13.7695 13.107 13.7475 13.3084C13.5041 15.5405 13.3822 17.0992 13.1804 20.5655C12.8994 25.3893 12.8994 33.4431 13.1804 38.2669C13.3822 41.7332 13.5041 43.2919 13.7475 45.524C13.7695 45.7254 13.809 46.0936 13.8353 46.3425C13.8617 46.5909 13.9109 46.9982 13.9448 47.2466C13.9787 47.4954 14.0479 48.0091 14.0985 48.388C14.4193 50.7879 14.8398 52.9345 15.3808 54.9348C15.5326 55.4955 15.9287 56.6018 16.155 57.0965C16.5289 57.914 16.8901 58.4144 17.2885 58.6673C17.4827 58.7902 17.5525 58.8106 17.7775 58.8088C18.1054 58.8066 18.3091 58.7054 18.6124 58.3945C20.3113 56.6515 21.7631 49.2632 22.3301 39.4728C22.3548 39.0464 22.3953 38.339 22.42 37.9008C22.67 33.4821 22.6704 25.3017 22.4208 20.9531C22.3964 20.5267 22.3558 19.8096 22.3308 19.3595C22.0578 14.4632 21.4823 9.65892 20.7467 6.13733C20.0472 2.78834 19.1216 0.583457 18.2222 0.123393C18.031 0.0256688 17.701 -0.0143874 17.5319 0.0395781ZM29.636 0.0452668C28.074 0.432027 26.606 3.54368 25.5136 8.78346C25.3936 9.359 25.2772 9.93902 25.2549 10.0725C25.2326 10.2058 25.1552 10.6542 25.0827 11.0688C24.861 12.3381 24.6021 14.1879 24.4467 15.6126C24.4106 15.9442 24.3613 16.3899 24.3372 16.6031C24.2088 17.7383 24.0514 19.7495 23.9241 21.8791C23.7753 24.3692 23.7483 25.5248 23.7483 29.4162C23.7483 33.3076 23.7753 34.4631 23.9241 36.9533C24.0514 39.0829 24.2088 41.0941 24.3372 42.2292C24.3613 42.4424 24.4106 42.8882 24.4467 43.2199C24.6021 44.6444 24.861 46.4942 25.0827 47.7638C25.1552 48.1782 25.2326 48.6266 25.2549 48.7597C25.2772 48.8933 25.3936 49.4735 25.5136 50.0489C26.5287 54.9179 27.8635 57.9495 29.3017 58.6522C29.5946 58.7955 29.6605 58.811 29.9772 58.8106C30.2898 58.8106 30.361 58.7942 30.6308 58.6615C32.3451 57.8173 33.9315 53.5729 34.969 47.0532C35.1495 45.9193 35.2417 45.2512 35.424 43.7582C35.5249 42.9317 35.558 42.6225 35.6646 41.5078C36.041 37.5707 36.2097 33.8289 36.2097 29.4162C36.2097 24.6706 36.0355 21.0891 35.5783 16.4309C35.525 15.8882 35.3576 14.5019 35.2272 13.5237C35.0774 12.4003 34.8458 10.9647 34.6366 9.8628C33.7402 5.14152 32.5601 1.9276 31.2461 0.628851C30.7346 0.123348 30.1607 -0.0846725 29.636 0.0452668ZM44.5729 0.0443622C42.5711 0.436679 40.7054 3.81256 39.3252 9.53981C38.9203 11.22 38.4304 13.8858 38.1895 15.7202C37.5798 20.3639 37.323 24.4209 37.323 29.4162C37.323 34.4115 37.5798 38.4685 38.1895 43.1121C38.5836 46.1132 39.2474 49.2854 40.0234 51.8765C40.3596 52.9993 40.8808 54.3594 41.3328 55.2936C42.743 58.2095 44.3134 59.3389 45.9279 58.599C47.637 57.8156 49.2415 54.7595 50.4749 49.9384C50.6373 49.304 50.7064 48.9993 51.0229 47.5269C51.3658 45.9299 51.8119 43.0174 52.0484 40.8295C52.284 38.6516 52.3599 37.6696 52.5309 34.606C52.6269 32.8833 52.6687 29.4551 52.6211 27.2089C52.5951 25.9949 52.5547 24.6527 52.5309 24.2264C52.3599 21.1627 52.284 20.1808 52.0484 18.0029C51.8119 15.815 51.3658 12.9024 51.0229 11.3056C50.7064 9.83313 50.6373 9.52832 50.4749 8.89378C48.9134 2.79002 46.7919 -0.390506 44.5729 0.0443622ZM62.3555 0.0406559C61.0373 0.256561 59.6823 1.48214 58.519 3.51013C57.1883 5.83035 56.0393 9.25652 55.2036 13.3945C55.0034 14.3861 54.7059 16.1352 54.5811 17.0553C54.5313 17.4225 54.4613 17.9361 54.4258 18.1967C54.2512 19.4818 54.0232 21.8972 53.9254 23.4942C53.788 25.7454 53.7741 26.2881 53.7741 29.4162C53.7741 32.5443 53.788 33.087 53.9254 35.3382C54.0232 36.9352 54.2512 39.3507 54.4258 40.6357C54.4613 40.8963 54.5313 41.4098 54.5811 41.777C54.7059 42.6971 55.0034 44.4461 55.2036 45.438C56.27 50.7196 57.8435 54.8106 59.6343 56.959C60.3834 57.8573 61.1356 58.4189 61.9498 58.6881C62.4448 58.8514 63.1481 58.8603 63.6396 58.709C65.1135 58.2552 66.3904 56.8676 67.6273 54.3749C68.7148 52.1835 69.5738 49.5378 70.3121 46.1056C70.9692 43.0507 71.4499 39.4842 71.6999 35.8119C72.0122 31.2198 71.9826 26.4428 71.6123 21.836C71.4948 20.3688 71.2838 18.4971 71.0648 16.9692C70.4593 12.7515 69.5267 8.99435 68.3602 6.07274C67.9873 5.13868 67.2642 3.68813 66.8365 3.01484C65.5951 1.06221 64.3271 0.0818751 62.9659 0.0221812C62.75 0.012706 62.4753 0.0210164 62.3555 0.0406559ZM83.0971 0.0248941C82.7892 0.0667574 82.467 0.143677 82.1847 0.242563C80.1233 0.964788 78.1862 3.39944 76.6041 7.25713C76.2531 8.11277 75.7832 9.45189 75.4928 10.4227C75.4399 10.6004 75.3694 10.8329 75.3366 10.9395C75.2078 11.358 74.7191 13.273 74.6006 13.8252C74.5207 14.1955 74.2774 15.3988 74.1477 16.0648C74.0992 16.3135 74.0283 16.7205 73.9902 16.9692C73.8183 18.091 73.6253 19.441 73.5782 19.8548C73.5499 20.1036 73.509 20.4524 73.4875 20.6301C73.3834 21.4803 73.2707 22.7519 73.1863 24.0326C73.0602 25.9412 73.0355 26.8232 73.0355 29.4162C73.0355 32.0092 73.0602 32.8912 73.1863 34.7998C73.2707 36.0805 73.3834 37.352 73.4875 38.2023C73.509 38.3799 73.5499 38.7288 73.5782 38.9775C73.6253 39.3913 73.8183 40.7414 73.9902 41.8632C74.0283 42.1119 74.0992 42.5189 74.1477 42.7676C74.2774 43.4336 74.5207 44.6368 74.6006 45.0072C74.7191 45.5595 75.2078 47.4746 75.3366 47.8929C75.3694 47.9994 75.4399 48.2318 75.4928 48.4097C76.5085 51.806 77.8213 54.5404 79.3235 56.3876C80.3122 57.6031 81.3476 58.3559 82.4867 58.6873C82.8323 58.7875 82.9548 58.8013 83.5109 58.8008C84.2833 58.8004 84.62 58.7232 85.3192 58.3865C87.3479 57.4097 89.1903 54.8265 90.7302 50.7999C92.1655 47.047 93.2188 42.0064 93.7054 36.5657C93.9428 33.913 93.9886 32.7543 93.9886 29.4162C93.9886 26.0781 93.9428 24.9194 93.7054 22.2667C93.3028 17.7606 92.551 13.7096 91.4635 10.1869C90.8563 8.21906 90.293 6.80514 89.4982 5.25442C88.4663 3.24116 87.3842 1.8459 86.1473 0.933824C85.7151 0.615157 84.9516 0.242998 84.497 0.129554C84.168 0.0474214 83.37 -0.0122746 83.0971 0.0248941ZM106.388 0.0454823C105.634 0.13877 104.753 0.485947 103.948 1.00768C101.333 2.70103 98.9637 6.74277 97.3533 12.2561C96.1703 16.3055 95.4548 20.8561 95.1838 26.0568C95.1182 27.3079 95.1182 31.5245 95.1838 32.7756C95.2475 34.0029 95.3893 35.8445 95.4979 36.8671C96.3148 44.5485 98.3502 51.0554 101.183 55.0435C102.021 56.2217 103.01 57.2171 103.948 57.8249C105.716 58.9698 107.48 59.1322 109.251 58.3133C110.9 57.5512 112.403 56.0087 113.803 53.6425C114.118 53.1098 114.759 51.8712 114.972 51.3815C115.049 51.2036 115.153 50.9711 115.201 50.8647C115.651 49.8745 116.364 47.8415 116.818 46.256C117.502 43.8619 118.165 40.4944 118.457 37.9223C118.481 37.7092 118.52 37.37 118.544 37.1686C118.811 34.8749 118.937 32.4031 118.937 29.4162C118.937 26.429 118.812 23.9674 118.544 21.6637C118.521 21.4624 118.482 21.1232 118.457 20.91C118.163 18.3292 117.502 14.9707 116.818 12.5762C116.364 10.9908 115.651 8.95771 115.201 7.96779C115.153 7.8612 115.049 7.62861 114.972 7.45095C114.759 6.96138 114.118 5.72264 113.803 5.18983C112.05 2.22633 110.102 0.525961 107.962 0.0894977C107.63 0.0218362 106.773 -0.00210908 106.388 0.0454823Z" fill="white"/>
</svg>
