<svg width="70" height="62" viewBox="0 0 70 62" fill="none" xmlns="http://www.w3.org/2000/svg">
<path fill-rule="evenodd" clip-rule="evenodd" d="M8.37469 9.66113L0.226562 19.3225L3.36379 23.216C26.5384 51.9801 34.8104 62.1413 34.9356 61.9985C36.6309 60.0653 69.0726 19.5831 69.0908 19.3782C69.1049 19.2172 65.5038 14.7914 61.0878 9.54283L53.0586 0H34.7907H16.5226L8.37469 9.66113ZM25.6111 9.53662C21.5162 13.7209 18.1295 17.1445 18.0851 17.1445C18.041 17.1445 18.0047 13.7209 18.0047 9.53662V1.92875H25.5307H33.0565L25.6111 9.53662ZM51.2222 9.47018V17.0116L49.0255 14.8746C47.8175 13.6991 44.3275 10.3053 41.27 7.33312L35.7114 1.92875H43.4667H51.2222V9.47018ZM59.4637 10.5008C62.9458 14.626 65.795 18.0495 65.795 18.1086C65.795 18.1678 62.9019 18.216 59.3658 18.216H52.9366V10.6081C52.9366 6.42382 52.9806 3.00028 53.0346 3.00028C53.0884 3.00028 55.9815 6.3756 59.4637 10.5008ZM45.0617 13.6665L49.7238 18.216H34.8038H19.8836L20.6994 17.3052C21.148 16.8042 24.408 13.4271 27.9438 9.80043L34.3728 3.20666L37.3862 6.16173C39.0436 7.78724 42.4976 11.1643 45.0617 13.6665ZM16.004 18.1451C15.9613 18.1877 13.1709 18.1972 9.80304 18.1659L3.67989 18.1089L9.82426 10.8175L15.9688 3.52619L16.0252 10.7967C16.0563 14.7957 16.0468 18.1024 16.004 18.1451ZM23.0452 35.6284C31.494 55.4033 31.1931 54.6738 30.6218 54.0051C29.6964 52.9224 3.72254 20.6717 3.56716 20.4126C3.44008 20.2007 4.76621 20.1448 9.91834 20.1448H16.43L23.0452 35.6284ZM50.5088 20.448C49.3269 23.5278 34.5972 57.6042 34.4975 57.4891C34.3154 57.2786 18.644 20.5172 18.6462 20.3055C18.647 20.2172 25.8426 20.1448 34.6364 20.1448C48.3325 20.1448 50.6084 20.1883 50.5088 20.448ZM65.9675 20.5198C65.7901 20.7262 59.3962 28.6581 51.7592 38.1465C44.1222 47.6349 37.7822 55.4945 37.6703 55.6124C37.5585 55.7303 37.6062 55.4892 37.7766 55.0766C38.6846 52.8787 52.3736 20.8372 52.5404 20.5198C52.7217 20.1748 53.278 20.1448 59.5137 20.1448C65.9474 20.1448 66.2738 20.1636 65.9675 20.5198Z" fill="white"/>
</svg>
