<svg width="117" height="71" viewBox="0 0 117 71" fill="none" xmlns="http://www.w3.org/2000/svg">
<path fill-rule="evenodd" clip-rule="evenodd" d="M116.4 33.44C116.213 29.2692 115.26 25.0657 113.645 21.2818C113.018 19.8133 112.225 18.2723 111.373 16.866C110.246 15.006 108.771 13.0472 107.22 11.3518C106.805 10.898 105.296 9.40225 104.819 8.97189C102.141 6.55732 99.0024 4.50884 95.7489 3.05262C91.1843 1.00957 86.4296 -1.31032e-06 81.3724 -1.53138e-06C80.1383 -1.58532e-06 78.6443 0.0715485 77.7969 0.171233C77.5811 0.19661 77.1658 0.245667 76.874 0.280211C73.8002 0.64432 70.1326 1.65712 67.3257 2.91707C67.174 2.98514 66.9639 3.07753 66.8589 3.1223C66.4105 3.31344 64.7902 4.14146 64.1642 4.49934C61.2596 6.15989 58.9139 7.94615 56.5874 10.2692C56.0146 10.8412 55.2913 11.6051 54.9801 11.9669C54.6688 12.3287 54.3725 12.6729 54.3215 12.7319C54.0188 13.0823 53.0561 14.3562 52.618 14.9858C51.2203 16.9949 50.1852 18.8593 49.1224 21.2818C49.0712 21.3985 48.9621 21.6659 48.8799 21.876C48.2102 23.5889 48.0301 23.9917 47.5513 24.8465C47.2001 25.4735 46.792 26.0959 46.3271 26.7138C45.4066 27.9369 44.0511 29.2419 42.74 30.1672C39.1759 32.6824 34.5572 33.6599 30.2146 32.8177C27.5989 32.3105 25.1754 31.1719 23.064 29.4582C22.4809 28.985 21.47 27.9898 20.9228 27.3503C17.5843 23.449 12.2047 22.1237 7.41666 24.0229C6.65912 24.3234 5.57439 24.9264 4.87974 25.4332C4.0453 26.042 2.99694 27.073 2.39102 27.8808C1.16748 29.5119 0.428267 31.2734 0.10269 33.3339C-0.0332809 34.1944 -0.0342881 35.8602 0.100615 36.7501C0.421911 38.8694 1.2647 40.808 2.59128 42.4791C3.24816 43.3065 4.37996 44.3369 5.32532 44.9682C8.23387 46.9103 12.0052 47.4465 15.3829 46.3981C17.4109 45.7686 19.3388 44.5407 20.6611 43.0365C21.3873 42.2102 21.8196 41.7542 22.2922 41.3157C24.7073 39.0749 27.6642 37.646 30.8972 37.1573C32.4868 36.9171 34.1675 36.9173 35.7526 37.1581C38.6602 37.5997 41.29 38.7384 43.5473 40.5332C44.1622 41.0221 45.1291 41.9526 45.6795 42.5852C46.8955 43.9826 47.9255 45.7074 48.5685 47.423C48.691 47.7498 48.8271 48.0972 48.8709 48.1951C48.9147 48.293 48.9505 48.3844 48.9505 48.3982C48.9505 48.412 49.1049 48.7711 49.2937 49.1962C49.8191 50.3799 50.3463 51.4151 51.1086 52.7604C51.1585 52.8485 51.3734 53.2009 51.5861 53.5436C54.2361 57.8114 57.741 61.4198 61.984 64.2482C64.4727 65.9072 66.8837 67.1134 69.7022 68.1095C71.49 68.7413 73.1355 69.1831 74.9219 69.5109C79.9165 70.4273 85.0903 70.2716 89.9234 69.0593C91.7157 68.6097 93.9586 67.8529 95.3129 67.2406C95.3829 67.2089 95.6598 67.0839 95.9282 66.9628C98.1068 65.9798 100.289 64.683 102.322 63.1631C103.078 62.5974 104.227 61.6646 104.67 61.2564C104.775 61.1596 104.995 60.9587 105.158 60.81C105.62 60.3894 106.77 59.2318 107.284 58.6688C111.123 54.4704 113.86 49.4467 115.297 43.9644C115.647 42.6295 115.99 40.855 116.147 39.5722C116.184 39.2687 116.223 38.9441 116.235 38.8507C116.336 38.0281 116.387 36.9843 116.4 35.477C116.408 34.5317 116.408 33.6151 116.4 33.44ZM77.2029 34.7501C55.9574 34.747 38.7179 34.7292 38.893 34.7104C39.068 34.6917 39.4309 34.6549 39.6993 34.6288C40.6256 34.5385 41.9867 34.3549 42.882 34.1994C45.803 33.6922 47.8487 33.0145 49.2365 32.0945C50.0294 31.5688 51.7478 30.7827 53.2367 30.2646C54.5738 29.7992 56.8073 29.1755 58.2018 28.878C60.2101 28.4496 61.3233 28.2436 63.3579 27.9238C65.072 27.6543 67.9195 27.3141 69.7658 27.1581C71.6496 26.999 72.226 26.9592 74.6461 26.8215C76.572 26.7119 78.2408 26.6759 81.3936 26.676C85.881 26.6762 88.3092 26.772 92.6181 27.1188C93.2884 27.1727 94.9286 27.3348 95.6099 27.4144C95.7967 27.4363 96.1309 27.475 96.3526 27.5005C96.5743 27.526 96.9467 27.5729 97.1801 27.6048C97.4135 27.6366 97.7573 27.6832 97.944 27.7082C103.703 28.4791 108.763 29.7532 111.906 31.2238C112.905 31.6915 113.699 32.1653 114.346 32.6798C115.119 33.2951 115.6 33.9226 115.77 34.5394C115.799 34.6466 115.825 34.7391 115.827 34.745C115.829 34.7508 98.4485 34.7531 77.2029 34.7501ZM115.587 36.016C115.17 36.8735 113.945 37.868 112.309 38.6798C111.026 39.3161 109.104 40.0228 107.28 40.5284C107.093 40.5802 106.816 40.6573 106.665 40.6998C104.831 41.2137 101.299 41.9149 98.6866 42.2839C97.6496 42.4304 96.9466 42.5254 96.6284 42.562C95.6458 42.6752 95.0778 42.7369 94.4642 42.7973C94.0907 42.8341 93.7279 42.8732 93.6579 42.8842C93.534 42.9036 93.2746 42.9249 91.6421 43.0501C88.0283 43.3272 85.5823 43.4142 81.4148 43.4141C75.6089 43.4139 71.6023 43.1898 66.2224 42.5641C65.6873 42.5019 63.9912 42.2681 63.273 42.1576C58.6334 41.4438 54.7498 40.4762 51.8787 39.3185C50.786 38.878 49.2652 38.0894 49.0035 37.8276C48.971 37.7952 48.929 37.7686 48.9102 37.7686C48.8914 37.7686 48.7173 37.6808 48.5234 37.5736C47.144 36.8106 44.4555 36.0817 41.5877 35.6933C40.7024 35.5734 40.2764 35.521 39.8266 35.4767C39.5582 35.4503 39.1953 35.4135 39.0203 35.3947C38.8452 35.376 56.055 35.3582 77.2643 35.3552L115.827 35.3497L115.761 35.5725C115.725 35.695 115.647 35.8946 115.587 36.016ZM115.191 32.6157C113.281 30.7987 109.075 29.1672 103.27 27.9918C100.195 27.3693 96.6419 26.8703 93.1168 26.5659C92.8425 26.5422 92.4033 26.5034 92.1407 26.4798C89.5665 26.2478 84.7327 26.058 81.3936 26.0578C78.095 26.0576 73.3183 26.2464 70.7419 26.4789C70.4852 26.502 70.0364 26.541 69.7446 26.5654C68.9432 26.6325 67.7407 26.7538 67.0074 26.8416C65.4645 27.0264 64.3538 27.1703 63.7398 27.2649C63.5064 27.3008 63.1818 27.3497 63.0184 27.3734C62.2503 27.4849 60.615 27.7779 59.4537 28.0121C54.66 28.9789 50.9791 30.2421 48.7596 31.6819C47.3147 32.6193 44.9431 33.3122 41.4377 33.8212C41.1689 33.8603 40.9447 33.8871 39.8266 34.0145C38.9904 34.1097 38.884 34.085 39.5507 33.9504C42.3146 33.3926 44.7306 32.4973 46.4892 31.3793C47.7666 30.5673 48.3988 29.9891 49.3863 28.7297C49.9566 28.0024 50.9615 27.0034 51.9508 26.1804C52.2661 25.9181 53.1721 25.2532 53.661 24.9255C58.3893 21.7554 65.2215 19.4754 72.9016 18.5045C77.6804 17.9004 82.295 17.8036 87.1438 18.2058C89.0855 18.3668 91.9961 18.7564 93.4881 19.0549C95.6091 19.4793 96.4475 19.6709 97.8803 20.0587C99.8205 20.5839 102.444 21.4831 103.8 22.088C103.87 22.1192 104.176 22.2547 104.479 22.3891C108.324 24.0913 111.488 26.3583 113.478 28.8356C113.782 29.2145 114.458 30.2327 114.659 30.6141C115.064 31.385 115.517 32.5431 115.572 32.9462C115.574 32.9664 115.403 32.8176 115.191 32.6157ZM115.378 37.811C114.978 39.0478 114.191 40.4212 113.227 41.5667C112.889 41.9691 111.777 43.0881 111.312 43.495C109.33 45.2274 106.583 46.8472 103.348 48.191C99.5739 49.7592 94.5868 51.026 90.0083 51.5796C89.7048 51.6163 89.3134 51.6654 89.1383 51.6887C88.5453 51.7677 86.9739 51.907 85.4675 52.014C84.598 52.0758 83.8553 52.0894 81.3511 52.089C78.236 52.0886 78.1771 52.0866 75.8131 51.8975C73.0007 51.6725 70.4969 51.3 67.4106 50.6472C65.6761 50.2804 62.7877 49.4531 61.2572 48.8848C61.0588 48.8111 60.819 48.7262 60.7242 48.6961C60.4718 48.6159 58.8531 47.9535 58.2866 47.6986C54.2485 45.8815 51.0151 43.5446 49.1944 41.1272C47.4073 38.7544 44.1733 37.0958 39.4234 36.116C39.081 36.0453 39.062 36.0367 39.24 36.0329C39.3492 36.0306 39.5783 36.0464 39.7493 36.0681C39.9201 36.0897 40.2509 36.129 40.4844 36.1553C41.4736 36.2668 43.3734 36.5709 44.049 36.7259C44.1891 36.758 44.4851 36.826 44.7068 36.877C46.4226 37.2715 47.8028 37.7959 48.7808 38.4249C50.1219 39.2875 51.8912 40.0538 54.1683 40.7587C57.3468 41.7424 61.5513 42.5893 65.8616 43.1138C66.2584 43.1621 66.7263 43.22 66.9014 43.2425C67.2157 43.283 67.4369 43.3059 68.7261 43.4319C75.1443 44.0592 81.9958 44.1969 88.82 43.8358C90.636 43.7396 93.365 43.5272 94.8036 43.3699C98.7228 42.9413 101.341 42.5245 104.785 41.781C105.223 41.6863 107.173 41.1893 107.598 41.0638C109.74 40.4319 111.07 39.9349 112.5 39.232C113.426 38.7768 114.015 38.4261 114.592 37.9871C114.976 37.6947 114.961 37.7082 115.317 37.3654C115.624 37.0701 115.622 37.0565 115.378 37.811ZM115.173 30.2906C115.115 30.2047 115.067 30.1254 115.067 30.1143C115.067 30.0805 114.642 29.404 114.437 29.1115C113.732 28.1065 112.669 26.9576 111.63 26.078C111.005 25.5487 111.04 25.5775 110.568 25.2243C107.893 23.222 104.557 21.5593 100.533 20.222C97.3419 19.1616 93.3513 18.295 89.69 17.8671C88.3763 17.7135 88.2344 17.6981 87.7167 17.6528C85.4635 17.4553 84.0506 17.3991 81.342 17.399C79.0608 17.3989 78.4762 17.4151 76.6831 17.528C75.0936 17.6282 72.5228 17.902 71.336 18.0975C71.1259 18.1322 70.7058 18.2002 70.4024 18.2487C64.2377 19.2352 58.2457 21.3216 54.0642 23.9376C51.732 25.3967 50.1288 26.821 48.432 28.9417C46.9604 30.7809 43.9481 32.3384 40.2297 33.1826C39.4735 33.3543 38.9743 33.4506 38.9525 33.4289C38.9426 33.4189 39.1017 33.3667 39.3062 33.3128C41.5224 32.7292 43.9149 31.5437 45.6268 30.1811C46.2186 29.71 47.2084 28.7407 47.6507 28.1991C48.3888 27.2952 48.6552 26.8823 49.2798 25.6741C50.3572 23.5898 51.7727 21.6737 53.6168 19.8028C56.0366 17.348 58.7211 15.4129 62.0423 13.7294C64.4101 12.5291 66.6472 11.6565 69.2142 10.9318C72.1356 10.1071 74.8168 9.648 78.3381 9.36949C79.2624 9.29641 83.5413 9.29717 84.4066 9.37055C85.5228 9.46527 86.419 9.54967 86.7329 9.58965C87.706 9.71369 88.1339 9.77459 88.82 9.88684C95.4916 10.9782 101.728 13.6335 106.453 17.3942C107.832 18.4924 109.572 20.1702 110.54 21.3359C112.793 24.0491 114.256 26.7536 115.113 29.7904C115.307 30.4772 115.308 30.489 115.173 30.2906ZM115.108 40.3148C114.071 44.1389 111.681 47.9375 108.343 51.0659C102.675 56.3789 94.4919 59.818 85.616 60.6174C83.9308 60.7691 83.4701 60.7874 81.3511 60.7863C79.3286 60.7853 78.8718 60.7686 77.3621 60.6407C76.0553 60.53 74.1918 60.2822 73.2032 60.0876C72.9698 60.0417 72.5784 59.9649 72.3333 59.9169C71.5103 59.7558 70.2401 59.4482 69.2661 59.1743C60.6871 56.761 53.6628 51.8261 49.9389 45.5962C49.6273 45.0747 49.5095 44.8624 49.1402 44.1554C48.7555 43.4187 48.4554 42.9388 48.0124 42.3518C46.4959 40.342 44.3219 38.7137 41.6458 37.5832C41.1586 37.3774 39.8876 36.9362 39.3123 36.7734C38.5232 36.5499 39.5601 36.7368 40.7322 37.0293C44.3513 37.9324 47.1737 39.4789 48.5884 41.334C49.2592 42.2135 50.4792 43.4876 51.3029 44.1688C53.5961 46.0652 56.3874 47.6514 59.7719 48.9813C61.853 49.7991 64.4398 50.5978 66.6043 51.0911C66.9194 51.1629 67.3013 51.2499 67.453 51.2845C68.8417 51.6007 71.346 52.0208 73.0123 52.2171C74.5342 52.3964 74.6204 52.4055 75.3887 52.4694C79.3254 52.7966 83.8565 52.7909 87.5681 52.4543C93.9463 51.8757 99.7073 50.4752 104.564 48.3224C109.549 46.1129 113.167 43.2527 115.031 40.0497C115.3 39.5868 115.303 39.5967 115.108 40.3148ZM114.775 43.5612C114.49 44.7037 114.145 45.827 113.752 46.8925C113.679 47.0909 113.582 47.3551 113.538 47.4797C113.339 48.0345 112.793 49.2731 112.338 50.2026C108.671 57.6866 102.27 63.7043 94.5915 66.8873C90.4351 68.6103 85.875 69.5148 81.3654 69.5108C80.5498 69.51 78.7227 69.4187 77.999 69.3424C77.2068 69.259 76.8109 69.2122 76.5558 69.172C76.4157 69.1499 76.1102 69.1021 75.8768 69.0658C70.2303 68.1862 64.7512 65.7867 60.129 62.1692C56.3785 59.234 53.2754 55.552 51.011 51.3498C50.3344 50.0944 49.4992 48.2535 49.1394 47.2247C49.0796 47.0537 49.0133 46.8756 48.9922 46.8289C48.9711 46.7822 48.8331 46.4767 48.6855 46.1499C47.3399 43.1698 44.9975 40.5448 42.1431 38.8181C41.5044 38.4317 40.2516 37.8098 39.6443 37.5777C39.4157 37.4903 39.2381 37.4093 39.2497 37.3977C39.2814 37.366 40.3945 37.7414 41.1421 38.0358C42.2964 38.4904 43.7077 39.2511 44.6375 39.9199C46.4025 41.1892 47.786 42.7789 48.6748 44.5585C49.1387 45.4872 50.0152 46.908 50.6645 47.7837C51.4884 48.8949 52.1842 49.7055 53.1902 50.7261C55.0941 52.6575 56.9027 54.0667 59.6022 55.722C60.4207 56.2239 62.3461 57.2219 63.4331 57.7076C67.6229 59.58 72.279 60.7814 77.0148 61.2121C78.6806 61.3636 79.1482 61.3818 81.3723 61.3822C83.604 61.3826 84.0384 61.3655 85.7434 61.2111C89.2369 60.8947 92.7286 60.15 96.0343 59.0163C96.5237 58.8485 96.7897 58.7509 97.4984 58.4791C97.9231 58.3162 98.8552 57.9273 99.1671 57.7828C99.3497 57.6983 99.5079 57.6291 99.5187 57.6291C99.5294 57.6291 99.9339 57.4352 100.417 57.1983C102.005 56.4204 103.234 55.7114 104.713 54.7214C105.49 54.201 106.478 53.4944 106.58 53.3861C106.592 53.3737 106.792 53.212 107.025 53.0268C108.025 52.2338 109.333 51.0242 110.081 50.2008C110.384 49.867 110.661 49.5634 110.696 49.5262C111.266 48.9215 112.348 47.4834 113.015 46.4467C113.319 45.9739 113.976 44.8168 114.185 44.3888C114.415 43.9163 114.716 43.2561 114.834 42.9671C114.941 42.7053 115.068 42.4735 115.008 42.6488C114.996 42.6839 114.891 43.0944 114.775 43.5612ZM114.966 27.4105C114.956 27.4007 114.857 27.1731 114.745 26.9047C114.327 25.9021 113.508 24.3885 112.814 23.3357C111.63 21.5396 110.025 19.6881 108.384 18.2264C108.175 18.0397 107.965 17.8515 107.918 17.8082C107.87 17.765 107.583 17.5242 107.28 17.273C104.536 15.003 101.158 13.047 97.562 11.6455C97.2353 11.5181 96.8731 11.3759 96.7572 11.3295C96.5675 11.2535 94.5559 10.5932 93.9761 10.4166C93.4982 10.271 91.423 9.7633 90.7071 9.61677C89.9058 9.45279 88.1764 9.16223 87.5257 9.08223C87.304 9.05499 86.9984 9.01573 86.8467 8.99502C86.5108 8.94911 85.3966 8.84692 84.5339 8.78288C83.5697 8.71133 81.4538 8.67471 80.0992 8.70611C71.7942 8.89886 63.8015 11.3723 57.5864 15.6729C56.0275 16.7516 54.8605 17.7221 53.4768 19.0909C51.3508 21.1939 49.9833 23.0358 48.5972 25.6636C47.9578 26.8759 47.4194 27.6249 46.5341 28.5342C44.8005 30.3146 42.5648 31.6482 39.8343 32.5306C39.5001 32.6386 39.2188 32.7191 39.2092 32.7094C39.1995 32.6998 39.4252 32.5992 39.7107 32.4859C40.6925 32.0962 42.0399 31.3812 42.9032 30.7917C44.3108 29.8307 45.7027 28.5166 46.7505 27.1594C47.103 26.7028 47.7231 25.77 48.011 25.263C48.3348 24.6928 48.9181 23.4681 49.0987 22.9793C50.5898 18.9428 52.9197 15.1215 55.8638 11.884C57.7693 9.78864 60.0286 7.85372 62.3818 6.3018C63.0098 5.8877 64.2891 5.09214 64.327 5.09214C64.3343 5.09214 64.5489 4.97518 64.8039 4.83229C66.4069 3.93382 68.6863 2.93634 70.5106 2.33501C73.4038 1.38132 76.1594 0.853364 79.2717 0.656414C83.354 0.3981 87.6514 0.906793 91.536 2.1081C92.7434 2.4815 94.4288 3.10647 95.2368 3.48047C95.3869 3.54998 95.5191 3.60685 95.5306 3.60685C95.5421 3.60685 95.9577 3.80532 96.4543 4.04785C99.2538 5.41529 101.87 7.16603 104.203 9.23335C104.841 9.79823 106.322 11.2517 106.802 11.7827C108.77 13.963 110.312 16.1226 111.674 18.6083C113.035 21.0898 114.069 23.7334 114.794 26.5865C114.966 27.2635 115.006 27.4527 114.966 27.4105ZM0.706664 34.7343C0.670332 34.6979 0.878142 34.5001 1.14129 34.3204C2.26342 33.5544 4.74916 32.9163 7.71873 32.6319C10.0472 32.4089 13.6479 32.4084 15.9133 32.6308C17.8476 32.8206 19.245 33.0744 20.8997 33.5366C22.8331 34.0767 25.3134 34.4993 27.732 34.7008C27.9538 34.7192 21.9686 34.7391 14.4317 34.745C6.89473 34.7509 0.718459 34.7461 0.706664 34.7343ZM25.6314 35.6227C23.7944 35.8699 22.2841 36.1679 20.8573 36.5651C18.7157 37.1611 17.0188 37.4217 14.2583 37.5782C9.67465 37.8381 4.88046 37.3444 2.28659 36.3455C2.02738 36.2457 1.73138 36.1217 1.62881 36.07C1.30549 35.907 0.875052 35.604 0.782751 35.4744L0.69393 35.3497L14.3297 35.3545L27.9654 35.3594L27.053 35.4568C26.5512 35.5104 25.9115 35.5851 25.6314 35.6227ZM27.3638 33.3763C26.1722 33.1481 24.5844 32.7038 23.5308 32.3036C22.5542 31.9327 21.8355 31.5979 21.0041 31.1267C18.9421 29.958 17.0491 29.3908 14.1224 29.0648C13.4762 28.9928 13.0547 28.9756 11.9031 28.9741C10.5206 28.9724 9.85013 29.012 8.78393 29.1582C5.61309 29.5932 2.9668 30.6605 1.38492 32.1424L1.20019 32.3154L1.33702 32.0396C1.99573 30.712 3.28415 29.4133 4.87974 28.4687C6.39622 27.571 8.16156 26.9965 10.1631 26.7492C10.9442 26.6527 12.8062 26.6532 13.5853 26.7502C16.219 27.078 18.59 28.0422 20.2844 29.4745C21.7505 30.7139 22.638 31.312 24.0825 32.0343C25.18 32.583 26.7312 33.1779 27.5307 33.3566C27.9102 33.4414 27.7827 33.4565 27.3638 33.3763ZM27.2212 36.1301C25.8994 36.3933 24.6368 36.7418 23.4671 37.1664C22.6133 37.4763 21.2599 38.1065 20.6552 38.4758C19.9719 38.893 18.8224 39.3906 17.8442 39.6927C15.1533 40.5237 11.7403 40.7554 8.68515 40.3144C5.12851 39.801 2.19845 38.3962 1.09882 36.6773C1.01666 36.5489 0.958144 36.435 0.968794 36.4244C0.979445 36.4137 1.09037 36.4627 1.21526 36.5332C2.24758 37.1157 4.3688 37.6574 6.70453 37.9349C8.64712 38.1658 9.55769 38.2143 11.9243 38.2131C13.9945 38.2121 14.7245 38.1804 16.2528 38.0254C18.0198 37.8463 19.4793 37.5837 20.7512 37.216C21.9722 36.8631 23.1336 36.6144 24.8039 36.3482C25.4547 36.2445 25.6192 36.2235 26.7772 36.0958C27.9906 35.9621 28.0443 35.9662 27.2212 36.1301ZM27.077 34.0367C26.589 33.9857 26.1676 33.9354 25.589 33.8592C25.0019 33.7818 23.2292 33.4829 22.8306 33.3941C21.9822 33.2052 21.6613 33.1271 21.1543 32.9862C19.9496 32.6516 19.4275 32.5333 18.2049 32.318C17.7192 32.2325 16.6621 32.1013 15.977 32.0414C15.6852 32.0159 15.2269 31.9746 14.9585 31.9496C14.6901 31.9247 13.5297 31.8945 12.38 31.8825C10.3245 31.8612 9.00151 31.9062 7.78667 32.0388C7.58828 32.0605 7.22544 32.0993 6.98037 32.125C5.8192 32.247 4.02311 32.5747 3.13982 32.8256C2.50271 33.0067 1.89706 33.2325 1.42443 33.4655C1.17753 33.5872 0.968153 33.6796 0.95912 33.6708C0.909934 33.6228 1.37063 33.0228 1.7392 32.6549C3.31148 31.0856 6.31644 29.9708 9.86608 29.64C10.7425 29.5583 12.9787 29.5582 13.8552 29.6399C15.6546 29.8075 17.2361 30.1497 18.6718 30.682C19.3032 30.9161 20.2035 31.3421 20.6124 31.6002C21.1286 31.9261 22.5197 32.5745 23.4035 32.9012C24.5476 33.3241 26.0093 33.7316 27.1794 33.954C27.7941 34.0708 27.7492 34.107 27.077 34.0367ZM26.6287 37.0113C24.4803 37.7093 22.3961 38.8421 20.8282 40.1641C20.0748 40.7992 19.9879 40.8692 19.6478 41.1142C18.0191 42.2872 15.7904 43.0935 13.4628 43.3518C12.6929 43.4372 10.9873 43.4347 10.2214 43.3469C8.06141 43.0995 6.05083 42.4061 4.42464 41.3478C3.11848 40.4978 1.91955 39.2164 1.31639 38.0259L1.19952 37.7952L1.4173 37.9835C2.20124 38.6612 2.77821 39.0419 3.68543 39.4803C5.16962 40.1975 7.04869 40.7253 8.91125 40.9481C9.12131 40.9733 9.46505 41.0154 9.67512 41.0418C9.88518 41.0683 10.735 41.0987 11.5636 41.1097C13.3178 41.1327 14.2949 41.0617 15.786 40.8028C17.6125 40.4856 19.6303 39.794 20.7875 39.0885C21.1239 38.8834 22.243 38.3176 22.6931 38.1251C23.4989 37.7803 24.4774 37.4419 25.4829 37.1602C26.0329 37.0061 27.2445 36.7292 27.5411 36.6899C27.7023 36.6685 27.7002 36.6706 27.4986 36.7325C27.3819 36.7683 26.9905 36.8938 26.6287 37.0113ZM27.053 37.5783C26.4819 37.8012 25.2901 38.3917 24.7402 38.7243C23.1028 39.7147 21.8738 40.7519 20.5175 42.2881C18.5311 44.5382 16.3039 45.7774 13.452 46.2193C12.9698 46.294 12.67 46.3115 11.8606 46.3122C10.7683 46.3131 10.3299 46.2657 9.32679 46.0389C6.13918 45.3178 3.35943 43.1537 1.84379 40.2132C1.47099 39.4898 1.43815 39.3747 1.69735 39.6995C2.23558 40.3738 3.07986 41.1473 3.86261 41.6831C7.5971 44.2396 12.8941 44.7597 17.3774 43.0103C18.6813 42.5015 19.6945 41.8929 20.8785 40.9073C22.4756 39.5778 23.6627 38.8452 25.3893 38.1238C25.9368 37.8951 27.3689 37.3867 27.4658 37.3867C27.5265 37.3867 27.4327 37.4302 27.053 37.5783ZM26.8778 32.5248C24.6597 31.8115 22.2982 30.4946 20.8791 29.1794C20.8122 29.1174 20.5705 28.9234 20.3421 28.7483C16.9185 26.124 11.8045 25.3438 7.27743 26.7551C5.91096 27.1811 4.45744 27.9295 3.3809 28.7616C2.88736 29.143 2.03434 29.9644 1.72786 30.3532C1.62189 30.4876 1.52849 30.5909 1.52025 30.5827C1.46899 30.5315 2.08692 29.3807 2.49258 28.772C3.36568 27.4617 4.74126 26.1522 6.06798 25.3683C7.39069 24.5868 8.68472 24.128 10.3117 23.8638C10.9716 23.7566 12.7442 23.7561 13.4096 23.8629C15.2351 24.1559 16.6803 24.7068 18.0997 25.6507C19.0028 26.2513 19.705 26.8806 20.5882 27.8808C21.0635 28.419 21.9868 29.3376 22.4486 29.7319C23.7416 30.8355 25.4691 31.8834 26.9803 32.4807C27.2087 32.571 27.3877 32.6527 27.378 32.6624C27.3683 32.6721 27.1433 32.6102 26.8778 32.5248Z" fill="white"/>
</svg>
