<svg width="559" height="255" viewBox="0 0 559 255" fill="none" xmlns="http://www.w3.org/2000/svg">
<path d="M292.03 18.5218V18.5224V67.8428C292.03 67.8429 292.03 67.843 292.03 67.843C292.029 70.1 292.473 72.3351 293.336 74.4205C294.199 76.506 295.465 78.401 297.061 79.9972C298.656 81.5935 300.551 82.8598 302.636 83.7237C304.721 84.5877 306.956 85.0323 309.213 85.0323L366.917 85.0323C366.918 85.0323 366.918 85.0323 366.919 85.0323C367.218 85.034 367.509 85.1241 367.757 85.2913C368.005 85.4587 368.197 85.6959 368.31 85.9729C368.423 86.2499 368.452 86.5542 368.392 86.8473C368.332 87.1399 368.187 87.4082 367.974 87.6185C367.974 87.6188 367.974 87.6191 367.973 87.6194L287.329 166.508C287.328 166.508 287.328 166.508 287.328 166.509C287.044 166.783 286.665 166.936 286.27 166.936H218.23C213.673 166.936 209.302 168.746 206.08 171.969C202.857 175.191 201.047 179.562 201.047 184.119V236.32C201.047 240.877 202.857 245.248 206.08 248.47L206.433 248.117L206.08 248.47C209.302 251.693 213.673 253.503 218.23 253.503H270.405C274.963 253.503 279.333 251.693 282.556 248.47C285.778 245.248 287.588 240.877 287.588 236.32V172.196C287.59 171.797 287.749 171.414 288.031 171.132C288.314 170.849 288.696 170.69 289.095 170.689H543.994C545.769 170.689 547.526 170.339 549.166 169.66C550.805 168.98 552.295 167.985 553.549 166.729C554.804 165.474 555.799 163.984 556.478 162.344C557.156 160.704 557.505 158.947 557.504 157.172V97.6641C557.505 95.8895 557.156 94.132 556.478 92.4921C555.799 90.8521 554.804 89.362 553.549 88.1067C552.295 86.8515 550.805 85.8557 549.166 85.1763C547.526 84.497 545.769 84.1473 543.994 84.1473H374.924C374.525 84.146 374.142 83.9868 373.86 83.7045C373.578 83.4221 373.419 83.0395 373.417 82.6402V18.5224V18.5216C373.41 13.973 371.601 9.61256 368.385 6.39557C365.169 3.17858 360.809 1.36734 356.261 1.35864H356.26L309.187 1.35864L309.187 1.35864C304.637 1.36561 300.277 3.17631 297.061 6.39371C293.844 9.61111 292.035 13.9726 292.03 18.5218Z" stroke="#B7B7B7"/>
<path d="M187.861 84.3579H135.283C126.023 84.3579 118.516 91.8651 118.516 101.126V153.704C118.516 162.964 126.023 170.471 135.283 170.471H187.861C197.122 170.471 204.629 162.964 204.629 153.704V101.126C204.629 91.8651 197.122 84.3579 187.861 84.3579Z" stroke="#B7B7B7"/>
</svg>
