<svg width="506" height="244" viewBox="0 0 506 244" fill="none" xmlns="http://www.w3.org/2000/svg">
<path d="M405.027 132.733C402.27 132.733 399.627 133.827 397.677 135.774C395.728 137.721 394.633 140.362 394.633 143.116V199.959C394.633 205.607 395.747 211.2 397.911 216.418C400.075 221.636 403.247 226.377 407.246 230.37C411.245 234.363 415.992 237.53 421.216 239.689C426.44 241.849 432.039 242.959 437.692 242.957H494.372C497.129 242.957 499.772 241.863 501.721 239.915C503.671 237.968 504.766 235.327 504.766 232.573V143.077C504.766 140.323 503.671 137.682 501.721 135.734C499.772 133.787 497.129 132.693 494.372 132.693L405.027 132.733Z" stroke="#C2C2C2"/>
<path d="M495.774 1.00001H403.885C401.441 1.00001 399.097 1.97001 397.369 3.69661C395.64 5.42321 394.67 7.76498 394.67 10.2068V99.0405C394.665 100.467 394.992 101.875 395.624 103.154C396.257 104.433 397.178 105.547 398.315 106.41C399.452 107.273 400.774 107.86 402.177 108.126C403.58 108.391 405.025 108.328 406.399 107.941L498.289 81.9423C500.226 81.3939 501.931 80.2272 503.143 78.6202C504.355 77.0131 505.007 75.0541 505 73.0421V10.1672C504.989 7.73057 504.013 5.39746 502.283 3.67912C500.554 1.96078 498.213 0.997372 495.774 1.00001V1.00001Z" stroke="#C2C2C2"/>
<path d="M335.07 235.888L366.057 204.931C375.501 195.497 375.501 180.2 366.057 170.765L335.07 139.809C325.626 130.374 310.315 130.374 300.871 139.809L269.885 170.765C260.441 180.2 260.441 195.497 269.885 204.931L300.871 235.888C310.315 245.322 325.627 245.322 335.07 235.888Z" stroke="#C2C2C2"/>
<path d="M204.172 235.886L235.158 204.929C244.602 195.494 244.602 180.198 235.158 170.763L204.172 139.807C194.728 130.372 179.417 130.372 169.973 139.807L138.986 170.763C129.543 180.198 129.543 195.494 138.986 204.929L169.973 235.886C179.417 245.32 194.728 245.32 204.172 235.886Z" stroke="#C2C2C2"/>
<path d="M73.2656 235.883L104.252 204.927C113.696 195.492 113.696 180.196 104.252 170.761L73.2656 139.804C63.8218 130.37 48.5103 130.37 39.0665 139.804L8.08013 170.761C-1.36369 180.196 -1.36369 195.492 8.08014 204.927L39.0665 235.883C48.5103 245.318 63.8218 245.318 73.2656 235.883Z" stroke="#C2C2C2"/>
</svg>
