<?xml version="1.0" standalone="no"?>
<!DOCTYPE svg PUBLIC "-//W3C//DTD SVG 1.1//EN" "http://www.w3.org/Graphics/SVG/1.1/DTD/svg11.dtd" >
<svg xmlns="http://www.w3.org/2000/svg" xmlns:xlink="http://www.w3.org/1999/xlink" version="1.1">
<metadata>
Created by FontForge 20190801 at Wed Oct 28 14:26:02 2020
 By www-data
Copyright (c) 2020 CoType Foundry. All Rights Reserved.
</metadata>
<defs>
<font id="aeoniktriallight" horiz-adv-x="585" >
  <font-face 
    font-family="aeoniktriallight"
    font-weight="300"
    font-stretch="normal"
    units-per-em="1000"
    panose-1="2 11 4 3 3 3 0 0 0 0"
    ascent="800"
    descent="-200"
    x-height="507"
    cap-height="700"
    bbox="-64 -206 939 720"
    underline-thickness="38"
    underline-position="-200"
    unicode-range="U+0020-007A"
  />
<missing-glyph horiz-adv-x="620" 
d="M60 -109v829h500v-829h-500zM217 632q-41 0 -63 -24t-22 -66t22 -66t63 -24q32 0 52 18.5t22 48.5h-46q-7 -29 -30 -29q-35 0 -35 52t35 52q23 0 30 -30h46q-2 31 -22 49.5t-52 18.5zM394 632q-40 0 -63.5 -25.5t-23.5 -64.5q0 -40 23.5 -65t63.5 -25q39 0 63 25t24 65
q0 39 -24 64.5t-63 25.5zM394 490q-39 0 -39 52t39 52t39 -52t-39 -52zM288 400h-146v-40h49v-138h47v138h50v40zM417 222v66l64 112h-52l-35 -65l-33 65h-55l64 -112v-66h47zM203 46h28q30 0 48.5 16.5t18.5 44.5t-18.5 45t-48.5 17h-74v-178h46v55zM338 -9h125v40h-78v31
h60v37h-60v30h75v40h-122v-178zM203 131h24q24 0 24 -24q0 -23 -24 -23h-24v47z" />
    <glyph glyph-name=".notdef" horiz-adv-x="620" 
d="M60 -109v829h500v-829h-500zM217 632q-41 0 -63 -24t-22 -66t22 -66t63 -24q32 0 52 18.5t22 48.5h-46q-7 -29 -30 -29q-35 0 -35 52t35 52q23 0 30 -30h46q-2 31 -22 49.5t-52 18.5zM394 632q-40 0 -63.5 -25.5t-23.5 -64.5q0 -40 23.5 -65t63.5 -25q39 0 63 25t24 65
q0 39 -24 64.5t-63 25.5zM394 490q-39 0 -39 52t39 52t39 -52t-39 -52zM288 400h-146v-40h49v-138h47v138h50v40zM417 222v66l64 112h-52l-35 -65l-33 65h-55l64 -112v-66h47zM203 46h28q30 0 48.5 16.5t18.5 44.5t-18.5 45t-48.5 17h-74v-178h46v55zM338 -9h125v40h-78v31
h60v37h-60v30h75v40h-122v-178zM203 131h24q24 0 24 -24q0 -23 -24 -23h-24v47z" />
    <glyph glyph-name=".null" horiz-adv-x="0" 
 />
    <glyph glyph-name="nonmarkingreturn" horiz-adv-x="333" 
 />
    <glyph glyph-name="space" unicode=" " horiz-adv-x="270" 
 />
    <glyph glyph-name="comma" unicode="," horiz-adv-x="184" 
d="M81 70q27 0 44.5 -24t17.5 -59q0 -50 -30.5 -81.5t-81.5 -33.5v30q36 1 55.5 24.5t19.5 54.5q0 17 -9 26q-7 -12 -25 -12q-15 0 -25 9.5t-10 26.5t12 28t32 11z" />
    <glyph glyph-name="hyphen" unicode="-" horiz-adv-x="441" 
d="M382 263h-323v43h323v-43z" />
    <glyph glyph-name="period" unicode="." horiz-adv-x="184" 
d="M54 33q0 17 10.5 27t27.5 10t27.5 -10t10.5 -27t-10.5 -27.5t-27.5 -10.5t-27.5 10.5t-10.5 27.5z" />
    <glyph glyph-name="zero" unicode="0" horiz-adv-x="601" 
d="M48 334v32q0 150 70 245t183 95q112 0 182 -95t70 -245v-32q0 -153 -69.5 -246.5t-182.5 -93.5q-114 0 -183.5 93t-69.5 247zM500 336v28q0 133 -54.5 213.5t-144.5 80.5q-91 0 -145.5 -80.5t-54.5 -213.5v-28q0 -133 54.5 -213.5t145.5 -80.5q90 0 144.5 80.5
t54.5 213.5z" />
    <glyph glyph-name="one" unicode="1" horiz-adv-x="293" 
d="M168 611v89h51v-700h-52v527q-14 -17 -45 -17h-120v47h120q46 0 46 54z" />
    <glyph glyph-name="two" unicode="2" horiz-adv-x="520" 
d="M21 0v45l272 247q33 30 50 47t40 45.5t33 57t10 59.5q0 74 -47 116t-127 42q-79 0 -125.5 -47.5t-46.5 -128.5v-14h-52v17q0 99 61 159.5t163 60.5q106 0 166.5 -54.5t60.5 -147.5q0 -38 -11 -71.5t-36.5 -65.5t-46 -53t-59.5 -56l-233 -210h395v-48h-467z" />
    <glyph glyph-name="three" unicode="3" horiz-adv-x="561" 
d="M367 363q66 -10 108 -52t42 -119q0 -87 -67.5 -142.5t-176.5 -55.5q-110 0 -176 56.5t-66 154.5h52q0 -76 53.5 -120t139.5 -44q82 0 135 43t53 111q0 67 -49.5 103.5t-141.5 36.5h-58v45h55q84 0 129.5 40t45.5 104q0 61 -46.5 98t-121.5 37q-78 0 -127.5 -41
t-50.5 -109h-52q1 89 65 143t165 54t161 -49.5t60 -130.5q0 -67 -35 -109t-96 -54z" />
    <glyph glyph-name="four" unicode="4" horiz-adv-x="565" 
d="M14 184v47l368 469h58v-468h115v-48h-115v-184h-52v184h-374zM388 635l-315 -403h315v403z" />
    <glyph glyph-name="five" unicode="5" horiz-adv-x="555" 
d="M293 464q101 0 164 -65t63 -168q0 -111 -69 -173.5t-169 -62.5q-107 0 -170.5 61t-69.5 153h52q6 -72 56 -119.5t132 -47.5q77 0 131 49.5t54 138.5q0 82 -49 134.5t-132 52.5q-56 0 -106.5 -27t-71.5 -83l-50 2l25 391h394v-48h-347l-19 -273q61 85 182 85z" />
    <glyph glyph-name="six" unicode="6" horiz-adv-x="584" 
d="M99 113q-51 99 -51 237q0 162 66.5 259t189.5 97q91 0 149 -51t71 -135h-52q-13 64 -56 102t-114 38q-101 0 -154.5 -83t-53.5 -218q0 -46 10 -90q-1 10 2 27q14 74 69.5 118.5t137.5 44.5q103 0 165 -63.5t62 -168.5q0 -102 -64.5 -167.5t-168.5 -65.5q-142 0 -208 119z
M488 227q0 83 -48.5 134.5t-129.5 51.5q-83 0 -134.5 -52t-51.5 -135t50 -134.5t132 -51.5t132 52t50 135z" />
    <glyph glyph-name="seven" unicode="7" horiz-adv-x="497" 
d="M6 652v48h480v-38l-355 -662h-57l355 652h-423z" />
    <glyph glyph-name="eight" unicode="8" horiz-adv-x="584" 
d="M377 361q72 -12 116.5 -59.5t44.5 -118.5q0 -83 -67.5 -136t-178.5 -53t-178.5 53t-67.5 136q0 70 44.5 117.5t116.5 60.5q-62 11 -101 55.5t-39 107.5q0 81 62 131.5t163 50.5t163 -50.5t62 -131.5q0 -63 -39 -107.5t-101 -55.5zM120 524q0 -61 48 -99t124 -38t124 38
t48 99t-47.5 99t-124.5 38t-124.5 -38t-47.5 -99zM292 39q85 0 138.5 41.5t53.5 106.5t-54 106.5t-138 41.5q-85 0 -138.5 -41.5t-53.5 -106.5t53.5 -106.5t138.5 -41.5z" />
    <glyph glyph-name="nine" unicode="9" horiz-adv-x="584" 
d="M279 -6q-92 0 -150 51t-71 135h52q13 -64 56.5 -102t114.5 -38q102 0 155.5 83t53.5 218q0 46 -10 90q2 -14 -2 -27q-14 -74 -69.5 -118.5t-137.5 -44.5q-103 0 -165 63.5t-62 168.5q0 102 64.5 167.5t168.5 65.5q142 0 208 -119q51 -99 51 -237q0 -162 -67 -259
t-190 -97zM274 287q83 0 134.5 52t51.5 135t-50 134.5t-132 51.5t-132 -52t-50 -135t48.5 -134.5t129.5 -51.5z" />
    <glyph glyph-name="A" unicode="A" horiz-adv-x="638" 
d="M73 0h-56l271 700h63l270 -700h-58l-84 214h-322zM318 640l-145 -376h290z" />
    <glyph glyph-name="B" unicode="B" horiz-adv-x="606" 
d="M72 0v700h239q105 0 162 -48t57 -132q0 -62 -33 -102.5t-93 -55.5q73 -11 115.5 -53t42.5 -114q0 -92 -63.5 -143.5t-183.5 -51.5h-243zM313 651h-187v-269h187q78 0 120.5 36t42.5 99t-42.5 98.5t-120.5 35.5zM315 333h-189v-284h189q93 0 142 38t49 105q0 69 -50 105
t-141 36z" />
    <glyph glyph-name="C" unicode="C" horiz-adv-x="698" 
d="M368 -6q-146 0 -233.5 98t-87.5 258q0 159 89 257.5t236 98.5q111 0 186 -58t98 -163h-57q-23 83 -82.5 127t-147.5 44q-120 0 -193 -85t-73 -221t72 -221t192 -85q89 0 148.5 44t81.5 128h57q-22 -105 -97.5 -163.5t-188.5 -58.5z" />
    <glyph glyph-name="D" unicode="D" horiz-adv-x="676" 
d="M276 0h-204v700h204q165 0 258.5 -94.5t93.5 -255.5t-93.5 -255.5t-258.5 -94.5zM126 650v-600h150q141 0 219 80.5t78 219.5q0 140 -77.5 220t-219.5 80h-150z" />
    <glyph glyph-name="E" unicode="E" horiz-adv-x="546" 
d="M72 0v700h431v-50h-377v-267h316v-50h-316v-283h390v-50h-444z" />
    <glyph glyph-name="F" unicode="F" horiz-adv-x="511" 
d="M72 0v700h416v-50h-362v-277h302v-50h-302v-323h-54z" />
    <glyph glyph-name="G" unicode="G" horiz-adv-x="739" 
d="M363 -6q-140 0 -228 99t-88 257q0 159 88.5 257.5t235.5 98.5q111 0 187 -58.5t98 -162.5h-58q-22 82 -81 126.5t-148 44.5q-120 0 -193 -85t-73 -221t72 -221t189 -85q114 0 182 68t68 173v30h-230v50h282v-365h-47l-3 155q-25 -69 -89.5 -115t-163.5 -46z" />
    <glyph glyph-name="H" unicode="H" horiz-adv-x="657" 
d="M72 0v700h54v-318h405v318h54v-700h-54v332h-405v-332h-54z" />
    <glyph glyph-name="I" unicode="I" horiz-adv-x="198" 
d="M72 0v700h54v-700h-54z" />
    <glyph glyph-name="J" unicode="J" horiz-adv-x="339" 
d="M213 150v550h54v-554q0 -146 -146 -146h-93v50h86q52 0 75.5 24t23.5 76z" />
    <glyph glyph-name="K" unicode="K" horiz-adv-x="610" 
d="M72 0v700h54v-441l387 441h66l-254 -294l277 -406h-65l-252 365l-159 -182v-183h-54z" />
    <glyph glyph-name="L" unicode="L" horiz-adv-x="481" 
d="M461 0h-389v700h54v-650h335v-50z" />
    <glyph glyph-name="M" unicode="M" horiz-adv-x="823" 
d="M72 0v700h69l272 -627l270 627h68v-700h-53v609l-262 -609h-49l-262 609v-609h-53z" />
    <glyph glyph-name="N" unicode="N" horiz-adv-x="662" 
d="M125 0h-53v700h51l414 -602v602h53v-700h-51l-414 602v-602z" />
    <glyph glyph-name="O" unicode="O" horiz-adv-x="749" 
d="M701 350q0 -156 -91.5 -256t-235.5 -100t-235.5 100t-91.5 256t91.5 256t235.5 100t235.5 -100t91.5 -256zM103 350q0 -135 75.5 -220.5t195.5 -85.5t196 85.5t76 220.5t-76 220.5t-196 85.5t-195.5 -85.5t-75.5 -220.5z" />
    <glyph glyph-name="P" unicode="P" horiz-adv-x="576" 
d="M72 0v700h260q99 0 159 -56t60 -148t-60 -148t-159 -56h-206v-292h-54zM328 650h-202v-308h201q77 0 123 42.5t46 111.5t-45.5 111.5t-122.5 42.5z" />
    <glyph glyph-name="Q" unicode="Q" horiz-adv-x="751" 
d="M681 50h50v-50h-56q-37 0 -58 10t-40 37l-7 10q-83 -63 -196 -63q-144 0 -235.5 100t-91.5 256t91.5 256t235.5 100t235.5 -100t91.5 -256q0 -159 -94 -259l2 -3q16 -23 31 -30.5t41 -7.5zM374 44q96 0 166 56l-36 51q-28 38 -65 38h-60v50h68q31 0 50 -10t39 -38l39 -55
q71 84 71 214q0 135 -76 220.5t-196 85.5t-195.5 -85.5t-75.5 -220.5t75.5 -220.5t195.5 -85.5z" />
    <glyph glyph-name="R" unicode="R" horiz-adv-x="595" 
d="M72 0v700h259q100 0 160 -55.5t60 -148.5q0 -77 -45.5 -129.5t-122.5 -64.5l170 -302h-61l-165 292h-201v-292h-54zM328 650h-202v-308h201q77 0 123 42t46 112q0 71 -45.5 112.5t-122.5 41.5z" />
    <glyph glyph-name="S" unicode="S" horiz-adv-x="597" 
d="M46 215h56q5 -78 61 -125t144 -47q86 0 137.5 38.5t51.5 105.5q0 30 -12 52.5t-29 36.5t-47.5 25t-55 16.5t-64.5 12.5t-67.5 13.5t-60 20.5t-52 32t-33 48t-13.5 68q0 89 64 141.5t171 52.5q106 0 171 -54t73 -145h-55q-9 69 -60 109.5t-129 40.5q-84 0 -132.5 -37.5
t-48.5 -104.5q0 -29 11.5 -51t27 -35t46 -23.5t53 -15t62.5 -11.5q51 -9 86.5 -19.5t72.5 -31t56 -54.5t19 -82q0 -89 -67 -143.5t-177 -54.5q-116 0 -185.5 60.5t-74.5 160.5z" />
    <glyph glyph-name="T" unicode="T" horiz-adv-x="574" 
d="M20 650v50h534v-50h-240v-650h-54v650h-240z" />
    <glyph glyph-name="U" unicode="U" horiz-adv-x="650" 
d="M69 289v411h54v-414q0 -122 49 -182t152 -60q105 0 154 60t49 182v414h54v-411q0 -295 -257 -295q-255 0 -255 295z" />
    <glyph glyph-name="V" unicode="V" horiz-adv-x="611" 
d="M271 0l-262 700h58l237 -635l237 635h56l-261 -700h-65z" />
    <glyph glyph-name="W" unicode="W" horiz-adv-x="961" 
d="M235 0l-213 700h57l187 -629l189 629h55l184 -629l189 629h56l-214 -700h-64l-181 611l-181 -611h-64z" />
    <glyph glyph-name="X" unicode="X" horiz-adv-x="595" 
d="M19 0l245 358l-230 342h64l200 -298l200 298h63l-229 -338l244 -362h-64l-216 317l-214 -317h-63z" />
    <glyph glyph-name="Y" unicode="Y" horiz-adv-x="618" 
d="M282 258l-268 442h63l232 -383l234 383h61l-268 -442v-258h-54v258z" />
    <glyph glyph-name="Z" unicode="Z" horiz-adv-x="588" 
d="M39 650v50h515v-40l-457 -610h466v-50h-538v40l456 610h-442z" />
    <glyph glyph-name="a" unicode="a" horiz-adv-x="533" 
d="M506 47h19v-47h-30q-45 0 -65 20.5t-18 65.5v18q-54 -110 -195 -110q-82 0 -130.5 39t-48.5 106q0 72 51.5 111.5t148.5 39.5h172v44q0 63 -39 98.5t-110 35.5q-63 0 -103 -27.5t-50 -75.5h-51q10 69 64.5 108.5t141.5 39.5q95 0 146.5 -47t51.5 -134v-236
q0 -28 10.5 -38.5t34.5 -10.5zM410 205v41h-176q-70 0 -107 -27t-37 -77q0 -47 35.5 -75.5t95.5 -28.5q88 0 138.5 46.5t50.5 120.5z" />
    <glyph glyph-name="b" unicode="b" 
d="M305 513q106 0 172.5 -70.5t66.5 -188.5q0 -115 -67 -187.5t-172 -72.5q-70 0 -120 32.5t-73 88.5l-8 -115h-44v700h51v-311q25 56 75 90t119 34zM301 40q85 0 138 59.5t53 154.5q0 94 -53.5 154t-137.5 60t-137.5 -60t-53.5 -153q0 -95 53 -155t138 -60z" />
    <glyph glyph-name="c" unicode="c" horiz-adv-x="536" 
d="M281 -6q-108 0 -174 71t-66 188q0 116 67 188t174 72q86 0 142.5 -45t72.5 -124h-53q-14 58 -57 91t-106 33q-84 0 -136 -60t-52 -155q0 -94 52.5 -153.5t135.5 -59.5q63 0 106 33t56 90h54q-15 -78 -72.5 -123.5t-143.5 -45.5z" />
    <glyph glyph-name="d" unicode="d" 
d="M474 393v307h51v-700h-44l-8 116q-25 -56 -74.5 -89t-118.5 -33q-106 0 -172.5 71t-66.5 189q0 114 67 186.5t172 72.5q70 0 120 -32t74 -88zM284 40q85 0 138 59.5t53 153.5q0 95 -53 155t-138 60q-84 0 -137.5 -60t-53.5 -154q0 -95 53 -154.5t138 -59.5z" />
    <glyph glyph-name="e" unicode="e" horiz-adv-x="550" 
d="M284 -6q-109 0 -176 72t-67 191q0 113 65 184.5t169 71.5q103 0 166.5 -63.5t67.5 -175.5q0 -3 -0.5 -10t-0.5 -11h-414v-9q2 -90 52.5 -147t133.5 -57q63 0 109 34.5t61 93.5h52q-17 -77 -76.5 -125.5t-141.5 -48.5zM98 296h356q-6 82 -54 127t-124 45q-71 0 -121.5 -48
t-56.5 -124z" />
    <glyph glyph-name="f" unicode="f" horiz-adv-x="303" 
d="M2 460v47h96v75q0 61 28 89.5t91 28.5h85v-47h-83q-38 0 -54 -16t-16 -54v-76h152v-47h-152v-460h-51v460h-96z" />
    <glyph glyph-name="g" unicode="g" 
d="M473 389l8 118h44v-476q0 -120 -59 -178.5t-182 -58.5q-94 0 -154 43t-72 123h53q12 -57 58.5 -88.5t118.5 -31.5q93 0 139.5 46.5t46.5 146.5v90q-25 -61 -74.5 -95t-119.5 -34q-106 0 -172.5 71t-66.5 189q0 115 67 187t172 72q69 0 119 -33t74 -91zM284 40
q85 0 138 59.5t53 153.5q0 95 -53 155t-138 60t-138 -59.5t-53 -154.5t53 -154.5t138 -59.5z" />
    <glyph glyph-name="h" unicode="h" horiz-adv-x="548" 
d="M294 513q91 0 145.5 -57t54.5 -172v-284h-51v282q0 89 -41.5 136.5t-115.5 47.5q-81 0 -128 -58.5t-47 -157.5v-250h-51v700h51v-313q50 126 183 126z" />
    <glyph glyph-name="i" unicode="i" horiz-adv-x="171" 
d="M86 614q-15 0 -25.5 10t-10.5 26t10.5 26t25.5 10t25.5 -10t10.5 -26t-10.5 -26t-25.5 -10zM60 0v507h51v-507h-51z" />
    <glyph glyph-name="j" unicode="j" horiz-adv-x="177" 
d="M91 614q-15 0 -25.5 10t-10.5 26t10.5 26t25.5 10t25.5 -10t10.5 -26t-10.5 -26t-25.5 -10zM-64 -200v47h60q38 0 54 16t16 54v590h51v-589q0 -61 -28 -89.5t-91 -28.5h-62z" />
    <glyph glyph-name="k" unicode="k" horiz-adv-x="492" 
d="M60 0v700h51v-497l295 304h63l-204 -211l221 -296h-62l-194 259l-119 -122v-137h-51z" />
    <glyph glyph-name="l" unicode="l" horiz-adv-x="171" 
d="M60 0v700h51v-700h-51z" />
    <glyph glyph-name="m" unicode="m" horiz-adv-x="866" 
d="M626 513q84 0 135.5 -54.5t51.5 -164.5v-294h-52v292q0 85 -37 129.5t-104 44.5q-71 0 -113.5 -51.5t-44.5 -138.5v-276h-51v287q0 87 -38 133t-105 46q-72 0 -114.5 -57t-42.5 -151v-258h-51v507h44l8 -108q47 114 165 114q61 0 105 -32.5t62 -94.5q23 59 69 93t113 34z
" />
    <glyph glyph-name="n" unicode="n" horiz-adv-x="547" 
d="M294 513q91 0 145.5 -57t54.5 -172v-284h-51v282q0 89 -41.5 136.5t-115.5 47.5q-81 0 -128 -58.5t-47 -157.5v-250h-51v507h44l8 -108q23 52 69 83t113 31z" />
    <glyph glyph-name="o" unicode="o" horiz-adv-x="569" 
d="M284 -6q-107 0 -175 72.5t-68 187.5t68 187t175 72t175.5 -72t68.5 -187t-68 -187.5t-176 -72.5zM284 40q85 0 138 59.5t53 154.5q0 94 -53.5 154t-137.5 60t-137.5 -60t-53.5 -154q0 -95 53 -154.5t138 -59.5z" />
    <glyph glyph-name="p" unicode="p" 
d="M305 513q106 0 172.5 -70.5t66.5 -188.5q0 -115 -67 -187.5t-172 -72.5q-71 0 -121.5 33t-72.5 90v-317h-51v707h44l8 -116q25 56 74.5 89t118.5 33zM301 40q85 0 138 59.5t53 154.5q0 94 -53.5 154t-137.5 60t-137.5 -60t-53.5 -153q0 -95 53 -155t138 -60z" />
    <glyph glyph-name="q" unicode="q" horiz-adv-x="587" 
d="M475 395l8 112h44v-707h-51v317q-25 -56 -75 -89.5t-119 -33.5q-106 0 -172.5 71t-66.5 189q0 114 67 186.5t172 72.5q69 0 119 -32t74 -86zM286 40q85 0 138 59.5t53 153.5q0 95 -53 155t-138 60q-84 0 -137.5 -60t-53.5 -154q0 -95 53 -154.5t138 -59.5z" />
    <glyph glyph-name="r" unicode="r" horiz-adv-x="310" 
d="M267 507h27v-49h-37q-146 0 -146 -201v-257h-51v507h44l8 -101q38 101 155 101z" />
    <glyph glyph-name="s" unicode="s" horiz-adv-x="487" 
d="M37 156h52q3 -55 47 -86.5t117 -31.5q63 0 104.5 27t41.5 71q0 22 -8.5 38t-20 25.5t-35 16.5t-41 10t-49.5 8q-37 5 -61 9.5t-53 14.5t-45 23.5t-27.5 35.5t-11.5 52q0 65 54.5 105t139.5 39q85 0 139 -38.5t61 -110.5h-52q-7 49 -47 77t-101 28q-65 0 -104 -26.5
t-39 -69.5q0 -21 9 -36t20 -23.5t34.5 -15.5t38.5 -9.5t47 -6.5q38 -5 63.5 -10t54.5 -16t45.5 -25t28 -37.5t11.5 -54.5q0 -66 -56.5 -105.5t-140.5 -39.5q-97 0 -155 42t-61 120z" />
    <glyph glyph-name="t" unicode="t" horiz-adv-x="309" 
d="M98 118v342h-96v47h96v142h51v-142h137v-47h-137v-341q0 -39 16 -55.5t56 -16.5h70v-47h-74q-64 0 -91.5 28t-27.5 90z" />
    <glyph glyph-name="u" unicode="u" horiz-adv-x="539" 
d="M428 258v249h51v-507h-45l-7 107q-23 -52 -68 -82.5t-110 -30.5q-88 0 -141.5 57.5t-53.5 171.5v284h51v-281q0 -90 40 -137.5t112 -47.5q79 0 125 58.5t46 158.5z" />
    <glyph glyph-name="v" unicode="v" horiz-adv-x="476" 
d="M207 0l-198 507h55l175 -448l174 448h53l-198 -507h-61z" />
    <glyph glyph-name="w" unicode="w" horiz-adv-x="777" 
d="M183 0l-172 507h54l148 -446l153 446h47l145 -446l156 446h52l-180 -507h-55l-143 426l-150 -426h-55z" />
    <glyph glyph-name="x" unicode="x" horiz-adv-x="469" 
d="M6 0l197 259l-187 248h61l158 -210l160 210h58l-187 -248l197 -259h-62l-168 223l-168 -223h-59z" />
    <glyph glyph-name="y" unicode="y" horiz-adv-x="477" 
d="M212 0l-203 507h55l176 -441l173 441h55l-243 -601q-26 -64 -46.5 -85t-69.5 -21h-78v47h64q37 0 51.5 13t32.5 58z" />
    <glyph glyph-name="z" unicode="z" horiz-adv-x="466" 
d="M36 460v47h394v-39l-341 -421h355v-47h-422v40l340 420h-326z" />
    </font>
</defs>
</svg>
