<?xml version="1.0" encoding="utf-8"?>
<!-- Generator: Adobe Illustrator 23.0.1, SVG Export Plug-In . SVG Version: 6.00 Build 0)  -->
<svg version="1.1" id="Layer_1" xmlns="http://www.w3.org/2000/svg" xmlns:xlink="http://www.w3.org/1999/xlink" x="0px" y="0px"
	 viewBox="0 0 142 160" style="enable-background:new 0 0 142 160;" xml:space="preserve">
<style type="text/css">
	.st0{fill:#FCFAFA;}
</style>
<g id="c133de6af664cd4f011a55de6b001b19">
	<path class="st0" d="M141.8,0.2l-13.3,144.1l-57.6,15.5l-57.6-15.5L-0.1,0.2H141.8z M115,29.5H70.8h-45L28,46.9h42.8h2.4l-2.4,1
		L29.6,65.1l1.4,17l39.9,0.1l21.4,0.1L90.9,105l-20,5.6l0,0h-0.2l-19.3-4.9l-1.2-14.1h-0.1H32.2h-0.1l2.3,27.2l36.4,10.8l0,0h0.1
		l36.2-10.6l4.7-54H70.9h-0.1h0.1l42.4-18.1L115,29.5z"/>
</g>
</svg>
