<?xml version="1.0" encoding="utf-8"?>
<!-- Generator: Adobe Illustrator 23.0.1, SVG Export Plug-In . SVG Version: 6.00 Build 0)  -->
<svg version="1.1" id="Layer_1" xmlns="http://www.w3.org/2000/svg" xmlns:xlink="http://www.w3.org/1999/xlink" x="0px" y="0px"
	 viewBox="0 0 136 150" style="enable-background:new 0 0 136 150;" xml:space="preserve">
<style type="text/css">
	.st0{fill:#FFFFFF;}
</style>
<path class="st0" d="M86.3,96.2c-5.6,0.5-11.3-0.5-16.3-3c-2.3-1.9-3.8-4.6-4-7.5c0-0.9-0.8-1.6-1.7-1.6l0,0c-2.4,0-4.7,0-7.1,0
	c-0.9-0.1-1.6,0.5-1.7,1.4c-0.3,5.2,1.8,10.2,5.6,13.8c4.8,3.7,10.6,5.9,16.6,6.3c6.3,0.7,12.7,0.5,18.9-0.8
	c4.8-0.9,9.2-3.2,12.5-6.7c3.8-4.7,4.9-11,3-16.6c-1.6-4-5-7-9.2-8.2c-9.6-3.4-19.9-3.1-29.6-5.6c-1.7-0.5-3.8-1.1-4.5-2.9
	c-0.9-2.6,0-5.4,2.1-7.1C74,56,77.4,55.1,81,55.2c4.8-0.4,9.6,0.2,14.1,2c2.7,1.6,4.6,4.3,5.1,7.4c0,0.9,0.8,1.7,1.7,1.8
	c2.3,0,4.7,0,7,0c0.8,0.1,1.6-0.4,1.8-1.3c0-6.4-3.3-12.4-8.9-15.7c-7.5-3.5-15.8-4.7-24-3.7l0,0c-6,0.2-11.7,2.5-16.2,6.5
	c-4.2,4.5-5.5,11.1-3.2,16.9c1.7,3.8,5,6.7,9.1,7.9c9.5,3.4,20,2.3,29.6,5.4c1.9,0.6,4.1,1.6,4.6,3.7c0.6,2.5-0.1,5.2-2,7.1
	C95.6,95.5,91,96.6,86.3,96.2z M129.7,33.2c-18.6-10.5-37.2-21-55.8-31.5c-3.8-2.1-8.4-2.1-12.2,0C43.2,12.2,24.6,22.6,6.1,33.1
	c-3.7,2-6,5.8-6,10v63.2c0.1,4.3,2.5,8.1,6.2,10.1c5.3,2.9,10.5,6.1,15.9,8.8c6.3,3.4,13.9,3.6,20.4,0.6c4.9-3.1,7.7-8.6,7.4-14.3
	c0-20.9,0-41.7,0-62.6c0.1-0.9-0.5-1.7-1.4-1.9c-0.1,0-0.1,0-0.2,0c-2.4,0-4.7,0-7.1,0c-0.9-0.1-1.6,0.6-1.7,1.4c0,0.1,0,0.1,0,0.2
	c0,20.7,0,41.5,0,62.2c0,2.9-1.8,5.6-4.5,6.6c-3.1,0.9-6.5,0.5-9.3-1.2c-4.9-2.8-9.9-5.6-14.8-8.4c-0.7-0.3-1.1-1-1-1.8
	c0-20.9,0-41.7,0-62.6c-0.1-0.8,0.4-1.6,1.2-1.9c18.5-10.4,36.9-20.8,55.4-31.2c0.7-0.4,1.5-0.4,2.2,0
	c18.5,10.4,36.9,20.8,55.4,31.2c0.8,0.3,1.2,1.1,1.2,2c0,20.9,0,41.7,0,62.6c0.1,0.7-0.3,1.4-1,1.8c-18.2,10.3-36.4,20.6-54.6,30.8
	c-0.9,0.5-1.9,1.3-2.9,0.7c-4.8-2.7-9.5-5.5-14.2-8.2c-0.5-0.4-1.2-0.4-1.7-0.1c-2.1,1.2-4.3,2.3-6.6,3.1c-1,0.4-2.3,0.5-3,1.5
	c0.9,1,2,1.8,3.2,2.3c5.6,3.2,11.1,6.4,16.7,9.6c3.7,2.4,8.5,2.5,12.4,0.3c18.5-10.5,37.1-20.9,55.6-31.4c3.8-2,6.2-5.9,6.2-10.1
	V43.2C135.4,39,133.2,35.3,129.7,33.2L129.7,33.2z"/>
</svg>
