<?xml version="1.0" encoding="utf-8"?>
<!-- Generator: Adobe Illustrator 23.0.1, SVG Export Plug-In . SVG Version: 6.00 Build 0)  -->
<svg version="1.1" id="Layer_1" xmlns="http://www.w3.org/2000/svg" xmlns:xlink="http://www.w3.org/1999/xlink" x="0px" y="0px"
	 viewBox="0 0 357 187" style="enable-background:new 0 0 357 187;" xml:space="preserve">
<style type="text/css">
	.st0{fill:#FFFFFF;}
</style>
<path class="st0" d="M178.2,0.9C80.9,0.9,2,42.4,2,93.6s78.9,92.7,176.2,92.7s176.2-41.5,176.2-92.7S275.5,0.9,178.2,0.9z
	 M178.2,10.1c94.3,0,167,39.8,167,83.4s-72.7,83.4-167,83.4s-167-39.8-167-83.4S83.9,10.1,178.2,10.1z M156.8,28.5L139,120.4h19.9
	l10.3-52.7c16.1,0,22.9-0.7,25.8,2.5c3.1,3.3,1.5,6.8-6.9,50.1h20.2c8.7-44.7,12.6-54.2,4.6-61.7c-7.7-7.1-23.6-5.8-40.8-5.8
	l4.8-24.4L156.8,28.5L156.8,28.5z M73.5,53l-17.8,91.9h20l4.8-24.5c22.4,0,36.3,1.6,49.1-10.4c14.3-13.1,17.9-36.3,7.8-48
	c-5.2-6.1-13.8-9.1-25.3-9.1L73.5,53L73.5,53z M229.7,53l-17.8,91.9H232l4.8-24.5c23.6,0,36.5,1.4,49.1-10.4
	c14.3-13.1,17.9-36.3,7.8-48c-5.2-6.1-13.8-9.1-25.3-9.1L229.7,53L229.7,53z M104.8,67.4c12.5,0.4,19.6,3,16.6,18.7
	c-4.3,22.1-19.5,19.8-38.2,19.8l7.4-38.5C95.8,67.4,100.6,67.3,104.8,67.4z M261.1,67.4c12.5,0.4,19.6,3,16.5,18.7
	c-4.4,22.4-20,19.8-38.2,19.8l7.4-38.5C252.1,67.4,256.9,67.3,261.1,67.4z"/>
</svg>
