<?xml version="1.0" encoding="utf-8"?>
<!-- Generator: Adobe Illustrator 23.0.1, SVG Export Plug-In . SVG Version: 6.00 Build 0)  -->
<svg version="1.1" id="Layer_1" xmlns="http://www.w3.org/2000/svg" xmlns:xlink="http://www.w3.org/1999/xlink" x="0px" y="0px"
	 viewBox="0 0 456 115" style="enable-background:new 0 0 456 115;" xml:space="preserve">
<style type="text/css">
	.st0{fill:#FFFFFF;}
</style>
<g>
	<path class="st0" d="M146.9,44.9c0-8.2-7.9-16.9-21.7-16.9c-15.4,0-32.4,11.3-35,33.9c-2.6,22.8,11.6,33,25.9,33s21.8-5.6,29.5-13
		c-6.6-8.3-15.1-4.5-16.7-3.6c-1.8,0.9-4.1,2.1-8.9,2.1c-5.5,0-11.2-2.5-11.2-12.8C144.2,64.2,146.9,53.1,146.9,44.9z M129.4,46.2
		c-0.2,2.5-1.2,6.9-19.2,9.3c3.8-13.4,11-14.4,14.3-14.4C127.7,41.1,129.6,43.5,129.4,46.2z M69.4,48.4c0,0-7.6,23.9-8.2,25.9
		c-0.2-2-5.8-44.9-5.8-44.9c-13,0-19.9,9.2-23.6,19c0,0-9.2,24-10,26c-0.1-1.9-1.4-25.7-1.4-25.7c-0.8-12-11.7-19.2-20.6-19.2
		l10.7,65c13.6-0.1,20.9-9.2,24.7-19c0,0,8.2-21.1,8.5-22.1c0.1,0.9,5.9,41.1,5.9,41.1c13.6,0,21-8.6,24.9-18l19.1-47
		C80.2,29.4,73.1,38.6,69.4,48.4z M197,27.9c-8.4,0-14.8,4.6-20.2,11.3v-0.1L181.6,0c-11.2,0-20.2,9.7-22,24.1l-8.5,69.7
		c6.4,0,13.2-1.9,16.9-6.6c3.3,4.2,8.2,7.6,15.4,7.6c18.8,0,31.7-21.9,31.7-42.4C215.2,33.8,206.1,27.9,197,27.9z M195.3,61.5
		c-2,11.4-8.3,19.2-14.5,19.2s-8.9-2.8-8.9-2.8c1.2-10,1.9-16.2,4.2-21.5c2.3-5.3,7.6-13.8,13.2-13.8
		C194.8,42.7,197.2,50,195.3,61.5z M262.3,29.4h-13.1l0.1-0.7c0.9-8.6,2.9-13.1,9.6-13.8c4.6-0.5,6.6-2.8,7.1-5.4
		c0.4-2,1.6-9.1,1.6-9.1c-26.4-0.2-34.7,11.2-36.8,28.6l-0.1,0.4h-0.3c-4.3,0-9,4.8-9.8,11l-0.3,2.3h8.8l-7.4,61l-2.3,10.9
		c0.3,0,0.6,0.1,0.9,0.1c12.3-0.5,20.2-10.2,22-24.4l5.8-47.6h4.1c4.1,0,8.8-4.1,9.6-10.8L262.3,29.4z M330.6,28.3
		c-15.2,0-29.5,11.2-33.9,28.7s2.3,38.3,24.6,38.3c22.3,0,35.1-21.6,35.1-39.6C356.4,37.8,344.3,28.3,330.6,28.3z M336.8,60.9
		c-0.8,7.9-4.3,20-13.9,20c-9.6,0-8.3-14.1-7.3-20.8c1-7.2,5-17.4,13.6-17.4C336.9,42.7,337.7,51.9,336.8,60.9z M431.4,48.4
		c0,0-7.6,23.9-8.2,25.9c-0.2-2-5.8-44.9-5.8-44.9c-13,0-19.9,9.2-23.6,19c0,0-9.2,24-10,26c-0.1-1.9-1.4-25.7-1.4-25.7
		c-0.8-12-11.7-19.2-20.6-19.2l10.7,65c13.6-0.1,20.9-9.2,24.7-19c0,0,8.2-21.1,8.5-22.1c0.1,0.9,5.9,41.1,5.9,41.1
		c13.6,0,21-8.6,24.9-18l19.1-47C442.1,29.4,435,38.6,431.4,48.4z M274.7,0.5l-11,89.1l0,0l-2.3,11c0.3,0,0.6,0.1,0.9,0.1l0,0
		c11.9-0.2,20.4-10.6,21.9-23.7l6.4-51.1C292.5,10.2,283.2,0.5,274.7,0.5z"/>
</g>
</svg>
