<?xml version="1.0" encoding="utf-8"?>
<!-- Generator: Adobe Illustrator 23.0.1, SVG Export Plug-In . SVG Version: 6.00 Build 0)  -->
<svg version="1.1" id="Layer_1" xmlns="http://www.w3.org/2000/svg" xmlns:xlink="http://www.w3.org/1999/xlink" x="0px" y="0px"
	 viewBox="0 0 265 120" style="enable-background:new 0 0 265 120;" xml:space="preserve">
<style type="text/css">
	.st0{fill:#FCFCFC;}
</style>
<path class="st0" d="M209.1,84.1c-2.4,1-4.7,1.5-7.1,1.5c-3.8,0-7.2-0.6-10.2-2c-2.9-1.2-5.5-3.1-7.6-5.4c-2.1-2.3-3.7-5-4.8-8.1
	s-1.6-6.5-1.6-10c0-3.7,0.6-7.1,1.6-10.2c1.1-3.2,2.7-5.9,4.7-8.2c2.1-2.4,4.7-4.3,7.6-5.5c3.2-1.4,6.7-2.1,10.2-2
	c2.5,0,5,0.4,7.3,1.1c2.4,0.8,4.5,1.9,6.4,3.3s3.5,3.3,4.7,5.5c1.3,2.3,2,4.8,2.3,7.4h-10.3c-0.6-2.7-1.9-4.8-3.7-6.2
	c-1.9-1.4-4.3-2.1-6.7-2.1c-2.4,0-4.5,0.5-6.2,1.4s-3.1,2.2-4.1,3.8s-1.8,3.4-2.3,5.4s-0.7,4.1-0.7,6.3c0,2.1,0.2,4.1,0.7,6
	c0.5,2,1.3,3.7,2.3,5.3s2.4,2.8,4.1,3.8c1.7,0.9,3.8,1.4,6.2,1.4c3.6,0,6.4-0.9,8.3-2.7c2-1.8,3.1-4.4,3.4-7.9h-10.9v-8.1h20.6v26.6
	h-6.9l-1.1-5.6C213.8,81.2,211.6,83,209.1,84.1z M241,35.4v40h24v9.1h-34.7V35.4H241z M31.3,60.1c0-7.8,3.8-15.2,10.4-21.6L54,85
	h8.4l11.8-42l11.7,42h8.4l14.5-53.5h-9.5l-9.5,41l-11.4-41h-8.7l-11.4,41l-9.2-40c16.4-11.3,42.6-18.6,72.1-18.6
	c27.7,0,52.5,5.8,68.9,15.9C172.1,12.9,139.8,1,103,1C46.5,1,0.7,27.4,0.7,60.1s45.8,59.1,102.3,59.1c36.8,0,68.9-11.8,87-28.6
	c-16.5,10-41.2,15.7-68.7,15.7C71.6,106.3,31.3,85.7,31.3,60.1L31.3,60.1z M132.6,54c-1.2-1.8-2.9-3.3-4.9-4.2
	c-2.1-1-4.5-1.5-6.8-1.5c-2.9,0-5.5,0.5-7.7,1.5c-2.1,1-4,2.4-5.4,4.3c-2.7,3.4-4.1,8.3-4.1,14c0,2.5,0.4,4.9,1.1,7.1
	c0.7,2.1,1.7,4,3.1,5.7c2.9,3.3,7,5.1,11.9,5.1c2.6,0,4.6-0.3,6.4-0.8c1.5-0.5,2.5-1.1,3.4-1.6c2-1.4,3.7-3.2,4.9-5.4
	c1-1.8,1.5-3.6,1.6-4.4l0.1-0.6h-7v0.5C129,76,126,80,120.7,80c-7.6,0-9.4-5.5-9.5-10.3h25.4V69c0-2.8-0.3-5.7-0.9-8.4
	C134.9,58.3,133.9,56,132.6,54z M120,54.6c5.6,0,8.6,3,9.2,9.2H111C111.3,58.8,115.3,54.6,120,54.6z M171.5,59.2
	c-0.6-2.1-1.6-4-3-5.7c-1.3-1.6-2.9-2.9-4.8-3.8c-2-0.9-4.2-1.4-6.5-1.4c-2,0-4,0.5-5.8,1.4c-1.5,0.8-2.8,1.8-3.8,3.1V36.4h-6.9V85
	h6.6v-3.3c0.7,0.9,1.4,1.6,2.3,2.3c1.9,1.4,4.2,2,6.9,2c2.9,0,5.5-0.6,7.7-1.9c2-1.1,3.6-2.8,4.9-4.9c1.2-2,2.1-4.2,2.6-6.4
	s0.8-4.4,0.8-6.6C172.6,63.7,172.2,61.4,171.5,59.2L171.5,59.2z M165.3,67.1c0,3.8-0.8,7-2.2,9.2c-1.4,2.3-4,3.7-6.7,3.6
	c-4.2,0-9-2.9-9-11.1c0-3.9,0.5-6.9,1.5-9.2c1.4-3.3,3.9-4.9,7.4-4.9c3.8,0,6.3,1.5,7.7,4.5C165.1,61.6,165.3,64.7,165.3,67.1
	L165.3,67.1z"/>
</svg>
