<?xml version="1.0" encoding="utf-8"?>
<!-- Generator: Adobe Illustrator 23.0.1, SVG Export Plug-In . SVG Version: 6.00 Build 0)  -->
<svg version="1.1" id="Layer_1" xmlns="http://www.w3.org/2000/svg" xmlns:xlink="http://www.w3.org/1999/xlink" x="0px" y="0px"
	 viewBox="0 0 251 251" style="enable-background:new 0 0 251 251;" xml:space="preserve">
<style type="text/css">
	.st0{fill:#FFFFFF;}
</style>
<g>
	<path class="st0" d="M125.1,0.7C56,0.7-0.1,56.9-0.1,125.9c0,69.1,56.2,125.2,125.2,125.2s125.2-56.2,125.2-125.2
		S194.1,0.7,125.1,0.7z M12.5,125.9c0-16.3,3.5-31.8,9.7-45.8l53.7,147.1C38.4,209,12.5,170.5,12.5,125.9z M125.1,238.5
		c-11.1,0-21.7-1.6-31.8-4.6l33.8-98.2l34.6,94.8c0.2,0.6,0.5,1.1,0.8,1.6C150.8,236.2,138.2,238.5,125.1,238.5z M140.6,73.1
		c6.8-0.4,12.9-1.1,12.9-1.1c6.1-0.7,5.4-9.6-0.7-9.3c0,0-18.2,1.4-30,1.4c-11.1,0-29.7-1.4-29.7-1.4c-6.1-0.4-6.8,8.9-0.7,9.3
		c0,0,5.7,0.7,11.8,1.1l17.5,48.1l-24.6,73.9l-41-122C62.9,72.7,69,72,69,72c6.1-0.7,5.3-9.6-0.7-9.3c0,0-18.2,1.4-30,1.4
		c-2.1,0-4.6-0.1-7.2-0.1c20.1-30.6,54.7-50.8,94.1-50.8c29.3,0,56,11.2,76,29.6c-0.5,0-1-0.1-1.5-0.1c-11.1,0-18.9,9.6-18.9,20
		c0,9.3,5.3,17.1,11.1,26.4c4.3,7.5,9.3,17.1,9.3,31.1c0,9.6-3.7,20.8-8.6,36.4l-11.2,37.5L140.6,73.1z M181.7,223.2l34.4-99.4
		c6.4-16.1,8.6-28.9,8.6-40.3c0-4.1-0.3-8-0.8-11.6c8.8,16,13.8,34.4,13.8,54C237.7,167.4,215.1,203.7,181.7,223.2z"/>
</g>
</svg>
