<svg width="123" height="66" viewBox="0 0 123 66" fill="none" xmlns="http://www.w3.org/2000/svg">
<path fill-rule="evenodd" clip-rule="evenodd" d="M51.7647 0.0642458C51.7455 0.141257 51.3864 1.93563 50.135 8.20803C49.5132 11.3255 48.5661 16.0701 48.4023 16.8873C48.3158 17.3195 48.238 17.6801 48.2294 17.689C48.2084 17.7101 48.0851 17.6556 46.6939 17.0097C46.04 16.7059 45.1884 16.3117 44.8011 16.1334C43.9662 15.749 41.921 14.8027 40.0926 13.9547C39.3699 13.6195 37.9339 12.9548 36.9014 12.4776C35.869 12.0004 34.4188 11.3294 33.6789 10.9867C30.9166 9.707 29.6707 9.13003 29.5491 9.07426C29.4803 9.04269 28.7167 8.68927 27.8522 8.28891C26.9878 7.88855 26.1431 7.49846 25.975 7.42211C25.8071 7.34575 25.0235 6.98304 24.2338 6.61603C23.4441 6.24908 22.7928 5.95408 22.7865 5.96045C22.7743 5.97274 22.8494 6.07068 25.6699 9.72363C26.6488 10.9913 27.7839 12.462 28.1924 12.9916C28.6009 13.5213 29.4463 14.617 30.0711 15.4265C30.696 16.2361 31.9675 17.8835 32.8967 19.0875C33.826 20.2916 34.7789 21.5261 35.0142 21.8309C35.3294 22.2389 35.4284 22.3874 35.3897 22.3939C35.3608 22.3987 34.5487 22.3022 33.5851 22.1795C32.6214 22.0567 31.6148 21.9292 31.3481 21.8961C31.0813 21.863 30.0184 21.7278 28.986 21.5956C27.9535 21.4635 26.9468 21.3356 26.749 21.3114C26.5511 21.2872 25.4881 21.1521 24.3868 21.0113C23.2856 20.8704 22.1663 20.7283 21.8996 20.6954C21.6328 20.6626 20.9078 20.5707 20.2883 20.4912C19.6688 20.4116 18.986 20.3258 18.7709 20.3003C18.5558 20.275 18.2813 20.2399 18.1608 20.2224C17.9495 20.1919 14.9445 19.8087 13.9528 19.6858C13.6861 19.6528 12.3979 19.4895 11.0901 19.3229C3.17256 18.3146 2.27274 18.2012 2.2629 18.2112C2.25851 18.2156 2.7153 18.4206 3.27797 18.6668C3.8406 18.913 4.54732 19.2231 4.84845 19.356C5.14959 19.4888 5.4875 19.6369 5.59931 19.6851C5.71116 19.7333 6.03498 19.8751 6.31892 20.0002C6.60287 20.1253 6.98295 20.2915 7.16363 20.3697C7.34431 20.4478 7.59773 20.5589 7.72683 20.6166C7.94835 20.7156 9.593 21.4372 10.6208 21.8864C10.8789 21.9992 11.1957 22.1384 11.3247 22.1957C11.4538 22.253 11.7706 22.3921 12.0287 22.5049C13.2371 23.0327 14.2083 23.4581 14.4221 23.5532C14.5512 23.6106 14.8679 23.75 15.126 23.8628C16.863 24.6227 17.8168 25.0408 18.02 25.1316C18.1491 25.1892 18.4694 25.3301 18.7318 25.4447C18.9943 25.5593 19.4236 25.7469 19.686 25.8615C19.9485 25.9762 20.2688 26.1168 20.3978 26.1742C20.5269 26.2315 21.0126 26.4447 21.4772 26.6479C22.6416 27.1572 23.7156 27.6284 23.9958 27.7529C24.1248 27.8102 24.8217 28.1154 25.5444 28.431C26.2672 28.7467 26.95 29.046 27.0619 29.0964C27.1737 29.1466 27.4902 29.2866 27.7653 29.4072C28.1632 29.5818 28.2495 29.6301 28.1877 29.644C28.1164 29.6598 27.84 29.6962 25.9824 29.9344C25.6383 29.9785 25.0962 30.0491 24.7779 30.0912C24.4596 30.1334 23.8612 30.2111 23.4482 30.2639C22.5477 30.3791 22.0317 30.4457 19.4279 30.7822C19.0924 30.8255 17.6 31.0185 16.1116 31.2109C14.6231 31.4032 13.2293 31.5814 13.0142 31.6067C12.7991 31.6321 12.5879 31.6598 12.5449 31.6682C12.5019 31.6766 12.0725 31.7339 11.5907 31.7953C11.1089 31.8568 10.3909 31.9488 9.99506 31.9998C9.59931 32.0509 8.99389 32.1289 8.64977 32.1732C8.3056 32.2175 7.53832 32.3169 6.94464 32.3943C6.35097 32.4716 5.47809 32.5846 5.00487 32.6454C4.5317 32.7062 3.86295 32.7925 3.51878 32.8373C3.17461 32.8821 2.62555 32.9529 2.29863 32.9947C1.97165 33.0364 1.3733 33.1134 0.968956 33.1656C-0.701951 33.3813 -1.28973 33.4573 -2.33178 33.5921C-2.93405 33.6701 -3.76098 33.777 -4.16942 33.8297C-4.57784 33.8825 -4.93569 33.9257 -4.9646 33.9257C-4.99354 33.9257 -5.00759 33.9354 -4.99586 33.9473C-4.98412 33.9591 -4.81634 33.9865 -4.62302 34.008C-3.30457 34.1548 -0.110973 34.5154 1.21922 34.6676C2.01416 34.7586 3.09495 34.8798 4.05065 34.9852C4.42921 35.0269 6.44248 35.2533 8.52463 35.4883C10.6067 35.7233 12.8875 35.9798 13.593 36.0582C14.2985 36.1368 15.2488 36.2436 15.7049 36.2958C16.1608 36.3479 16.8437 36.4255 17.2222 36.4681C18.7184 36.6364 19.6309 36.7394 20.304 36.8159C20.6911 36.8599 21.2754 36.924 21.6024 36.9584C21.9293 36.9928 22.232 37.0276 22.275 37.036C22.318 37.0443 22.677 37.086 23.0728 37.1287C24.0826 37.2375 27.9842 37.6774 28.1691 37.7032L28.3222 37.7245L28.2157 37.7797C28.1572 37.81 27.1731 38.2635 26.029 38.7874C24.8849 39.3113 23.6602 39.8727 23.3074 40.0349C22.9547 40.1971 21.9692 40.6489 21.1174 41.0391C20.2656 41.4292 18.4283 42.2707 17.0345 42.9091C15.6407 43.5474 13.9442 44.3253 13.2645 44.6375C11.9792 45.228 11.0458 45.6549 10.2454 46.0181C9.80506 46.2179 9.43501 46.388 7.6486 47.2111C7.2528 47.3935 6.80934 47.5959 6.66304 47.661C6.5168 47.726 6.06627 47.9313 5.66192 48.1172C4.07243 48.8478 3.56057 49.0826 3.04131 49.3192C2.74433 49.4542 2.50515 49.5689 2.50987 49.5737C2.51465 49.5786 2.9477 49.5202 3.47231 49.4446C4.36969 49.3144 10.5968 48.4198 20.0693 47.0599C22.3579 46.7313 24.4768 46.4263 24.7779 46.3821C25.079 46.3379 26.9586 46.0678 28.9547 45.7821C30.9508 45.4964 32.8303 45.2264 33.1314 45.1821C34.4457 44.9892 35.619 44.8247 35.6267 44.8324C35.6312 44.8369 35.3914 45.1662 35.0936 45.564C34.7959 45.9618 34.0117 47.0119 33.3509 47.8976C30.7225 51.4208 30.2109 52.1062 29.4395 53.1392C28.9985 53.7297 28.1607 54.8518 27.5779 55.6336C26.1943 57.4889 24.3633 59.9419 23.725 60.7955C23.446 61.1686 23.2223 61.478 23.2279 61.4838C23.2335 61.4896 23.5387 61.3493 23.9063 61.1724C24.2738 60.9955 24.7153 60.7835 24.8874 60.701C25.0595 60.6186 25.7353 60.2923 26.3892 59.9751C27.0431 59.658 27.7048 59.3384 27.8596 59.2641C28.0145 59.1904 28.634 58.892 29.2362 58.6009C29.8385 58.3102 30.4861 57.9974 30.6754 57.9063C30.8647 57.8152 31.5264 57.4956 32.1459 57.1958C32.7654 56.896 33.4271 56.5764 33.6164 56.4858C33.8056 56.3947 34.4533 56.0824 35.0555 55.7912C35.6578 55.5001 36.3124 55.1844 36.5104 55.0894C36.7082 54.9945 37.5107 54.6069 38.2937 54.229C40.6111 53.1093 41.8872 52.4933 42.2201 52.3337C42.3922 52.2513 43.1949 51.8643 44.0035 51.4729C47.6949 49.688 48.4324 49.3342 48.4596 49.3342C48.4978 49.3342 48.4959 49.3255 48.7256 50.3922C48.8307 50.8805 48.9286 51.3326 49.1655 52.4287C49.2271 52.715 49.3269 53.1768 49.3866 53.4549C49.4468 53.7326 49.5161 54.0521 49.5414 54.1654C49.5662 54.2782 49.6512 54.6686 49.7295 55.0335C50.0266 56.413 50.0916 56.7128 50.136 56.9124C50.1608 57.0252 50.2458 57.4156 50.3242 57.7805C50.6213 59.16 50.6857 59.4599 50.7301 59.6594C50.7555 59.7722 50.84 60.1626 50.9188 60.5275C50.9971 60.8924 51.1309 61.5103 51.2154 61.9012C51.3004 62.2917 51.4337 62.9096 51.5125 63.2745C51.5908 63.6394 51.6892 64.0939 51.7307 64.2848C51.8755 64.9461 51.9925 65.4874 52.1229 66.1006C52.195 66.4389 52.2704 66.7802 52.2905 66.8583L52.3278 67L52.5475 66.6843C52.7433 66.4037 53.1951 65.7487 54.4527 63.9219C54.6618 63.6177 55.0635 63.0354 55.3444 62.6272C55.8993 61.8217 56.4099 61.0804 57.0131 60.2041C57.8724 58.9566 58.6528 57.8244 58.8801 57.4961C59.0129 57.3052 59.4289 56.7013 59.8048 56.1542C60.1807 55.6076 60.6019 54.9959 60.7404 54.7949C60.8789 54.5944 61.175 54.1644 61.3986 53.8396C61.6226 53.5147 61.9894 52.9825 62.2139 52.6572C62.4383 52.3318 62.8949 51.6676 63.2288 51.1813C63.5626 50.6949 63.8592 50.2659 63.8884 50.2269L63.9409 50.157L64.5312 50.6067C64.856 50.854 65.7272 51.5172 66.467 52.0802C69.015 54.0189 69.4721 54.3674 70.0338 54.7968C70.3433 55.0335 71.2025 55.6876 71.9423 56.2501C72.6822 56.8131 73.6956 57.5848 74.1947 57.9651C74.6938 58.3454 75.5106 58.9677 76.0097 59.3471C77.7219 60.6499 80.1358 62.4883 82.4847 64.2785C82.8629 64.5668 83.1758 64.7991 83.1801 64.7948C83.1839 64.7905 83.1614 64.6955 83.1294 64.5832C83.0979 64.4714 83.0186 64.1807 82.9541 63.9378C82.8892 63.6943 82.7975 63.3536 82.7507 63.18C82.7034 63.006 82.6217 62.7004 82.5692 62.5009C82.5162 62.3013 82.3891 61.8251 82.2864 61.4433C82.1838 61.0611 81.9989 60.3718 81.8757 59.912C81.7525 59.4517 81.5691 58.7696 81.4688 58.396C81.3685 58.023 81.1855 57.3409 81.0623 56.8806C80.6645 55.3912 80.3106 54.07 80.1238 53.3759C80.023 53.0023 79.8401 52.3203 79.7169 51.8604C79.5937 51.4001 79.4107 50.718 79.31 50.3445C79.2097 49.9714 79.0482 49.3674 78.9513 49.0025C78.8543 48.6381 78.7249 48.1549 78.6638 47.9291C78.4956 47.3108 78.4694 47.2041 78.4823 47.1911C78.489 47.1846 78.8362 47.2723 79.2541 47.3861C80.6043 47.7537 82.3485 48.2284 82.83 48.3595C83.2627 48.4772 84.0737 48.6989 85.0824 48.9751C85.7893 49.1688 86.169 49.2725 86.4593 49.351C86.6141 49.393 86.9451 49.4836 87.1944 49.552C87.4437 49.6205 87.9719 49.7641 88.3674 49.8711C89.0322 50.0504 89.3828 50.1464 91.2617 50.6607C91.6314 50.7619 92.2509 50.9306 92.6382 51.0362C94.5635 51.5601 95.2775 51.7548 97.0652 52.2431C97.5127 52.3656 98.1885 52.5497 98.5668 52.6528C98.9455 52.7555 99.4174 52.8842 99.6152 52.9387C100.378 53.1474 101.727 53.5152 102.509 53.7272C102.767 53.7976 103.281 53.9379 103.651 54.0391C104.021 54.1408 104.648 54.311 105.043 54.4175C105.439 54.524 105.932 54.6585 106.138 54.7159C106.345 54.7737 106.676 54.8643 106.873 54.9178C107.072 54.9713 107.548 55.1015 107.934 55.207C108.319 55.3121 108.64 55.3931 108.646 55.3863C108.653 55.3796 108.148 55.007 107.523 54.5578C106.899 54.1085 105.607 53.1782 104.652 52.4909C103.697 51.8035 101.881 50.4963 100.616 49.5868C99.3515 48.6767 97.5141 47.3548 96.5336 46.6489C95.5526 45.9431 94.2501 45.0062 93.6393 44.5669C93.0284 44.1276 91.6777 43.1557 90.638 42.407L88.7476 41.0458L97.4587 41.0268C102.25 41.0163 109.949 41.0056 114.568 41.0031C119.314 41.0005 122.954 40.9866 122.937 40.9711C122.921 40.956 122.45 40.8275 121.891 40.6854C121.332 40.5434 120.297 40.2795 119.591 40.099C118.886 39.9186 117.633 39.5986 116.807 39.388C114.732 38.8589 112.919 38.3961 111.551 38.0463C110.208 37.7027 107.35 36.9731 103.557 36.0057C102.808 35.8148 101.731 35.5396 101.164 35.3941C99.8487 35.0573 97.9908 34.5829 95.8449 34.0361C92.2303 33.1149 92.4386 33.1696 92.4605 33.1475C92.4744 33.1332 92.8751 33.0206 94.0147 32.7109C94.3161 32.629 95.0267 32.435 95.5946 32.2797C96.1625 32.1244 96.7891 31.9535 96.9869 31.9C97.1851 31.8465 97.4664 31.7698 97.6125 31.7295C97.7592 31.6893 98.2516 31.555 98.7077 31.4311C99.1638 31.3073 99.6849 31.1651 99.8654 31.1151C100.046 31.0652 100.567 30.923 101.023 30.7991C101.479 30.6753 102.162 30.489 102.541 30.3854C102.919 30.2817 103.391 30.1532 103.588 30.0999C103.786 30.0466 104.068 29.97 104.214 29.9298C104.36 29.8895 104.853 29.755 105.309 29.631C106.402 29.3338 107.437 29.0508 107.843 28.9381C108.024 28.8881 108.383 28.7899 108.641 28.7201C108.899 28.6502 109.526 28.4793 110.033 28.3405C110.541 28.2017 111.33 27.9867 111.786 27.8627C112.241 27.7388 112.917 27.5544 113.287 27.4531C113.657 27.3517 114.171 27.2114 114.429 27.1414C115.044 26.9742 116.901 26.4677 117.339 26.3473C117.528 26.2954 117.993 26.1688 118.371 26.0659C118.75 25.9631 119.397 25.7868 119.811 25.674C120.224 25.5613 120.963 25.3598 121.453 25.2263C121.944 25.0928 122.457 24.9505 122.595 24.9101L122.845 24.8365L122.438 24.8346C122.04 24.8328 117.645 24.8951 113.694 24.9587C112.601 24.9762 109.751 25.0188 107.359 25.0532C103.27 25.1121 101.815 25.1342 96.9716 25.2112C95.8874 25.2284 93.9163 25.2563 92.5914 25.273C91.2665 25.2898 89.8337 25.3129 89.4081 25.3244C88.9821 25.336 88.6334 25.3379 88.6334 25.3287C88.6334 25.3195 88.9744 25.0583 89.3909 24.7484C89.8074 24.4385 90.3251 24.0532 90.541 23.8922C90.7564 23.7313 91.0669 23.5008 91.2302 23.3801C91.394 23.2593 91.8186 22.9435 92.174 22.6781C92.5293 22.4128 93.1278 21.9668 93.5036 21.6872C93.8795 21.4075 94.6021 20.8692 95.1098 20.4909C95.6175 20.1127 96.1787 19.695 96.3569 19.5628C96.535 19.4305 96.9014 19.1579 97.1703 18.9568C97.4396 18.7557 99.0888 17.5278 100.835 16.2281C102.582 14.9284 104.231 13.7005 104.501 13.4994C104.77 13.2982 105.291 12.9101 105.658 12.6368C108.537 10.4947 108.383 10.6111 108.312 10.6369C108.287 10.646 107.752 10.8019 107.124 10.9832C106.496 11.1646 105.411 11.4786 104.715 11.681C104.018 11.8834 102.941 12.1961 102.321 12.3758C100.941 12.7763 99.2503 13.2672 97.7458 13.7042C97.122 13.8853 96.0942 14.1837 95.4618 14.3672C94.8295 14.5507 93.8547 14.8339 93.2954 14.9965C92.7361 15.1591 91.7575 15.4434 91.1208 15.6282C90.4842 15.813 89.5055 16.0972 88.9463 16.2597C88.387 16.4223 87.3171 16.7329 86.5687 16.95C84.4472 17.5654 83.2407 17.9154 81.5313 18.412C78.5969 19.2645 78.2621 19.3605 78.2525 19.3526C78.2425 19.3448 78.6036 17.8967 79.9672 12.4706C80.12 11.8628 80.407 10.719 80.6048 9.92887C80.8025 9.1387 81.0981 7.95936 81.2615 7.30816C81.4248 6.65691 81.7157 5.49892 81.9072 4.73479C82.0987 3.97069 82.3476 2.97901 82.4603 2.53109C82.5735 2.08314 82.658 1.70923 82.649 1.70014C82.6404 1.69105 82.1494 2.06536 81.5581 2.53192C80.9673 2.9985 78.9699 4.5719 77.1201 6.02836C75.2703 7.48486 73.2854 9.04813 72.7089 9.50229C72.1324 9.95644 70.8863 10.938 69.9397 11.6835C68.9931 12.429 67.1996 13.8418 65.9545 14.823C64.7094 15.8041 63.6825 16.6055 63.672 16.6038C63.6553 16.6009 63.1505 15.904 62.7368 15.3123C62.6394 15.1734 62.4875 14.9603 62.3992 14.8388C62.3108 14.7172 61.6207 13.751 60.866 12.6916C59.5101 10.7882 59.3386 10.5477 58.9179 9.96044C58.5845 9.49525 55.3515 4.9608 53.5151 2.38247C52.6062 1.10606 51.8454 0.0427434 51.8244 0.0195675C51.7933 -0.0147227 51.7823 -0.00641855 51.7647 0.0642458ZM59.2178 27.2141C62.3982 27.6329 64.3903 29.9622 64.2824 33.1364C64.2614 33.7529 64.205 34.1596 64.0565 34.7691C63.4767 37.1426 61.8867 39.0563 59.7088 40.0015C58.1374 40.6835 56.1692 40.8384 54.4923 40.4119C52.5833 39.9264 51.1638 38.6369 50.573 36.8512C50.3719 36.2422 50.3036 35.8199 50.285 35.0701C50.2678 34.3705 50.2903 34.0742 50.4054 33.4521C50.7903 31.3818 52.0144 29.5293 53.7506 28.3917C54.7707 27.7232 55.9309 27.3242 57.2648 27.1832C57.7568 27.1312 58.7015 27.1462 59.2178 27.2141ZM37.304 27.4462C37.3193 27.4711 37.352 27.7999 37.5596 30.0105C37.6208 30.6617 37.7118 31.6279 37.7618 32.1575C37.8119 32.6872 37.8761 33.3692 37.9045 33.6731C37.9329 33.9771 37.9604 34.2303 37.9655 34.2358C37.9706 34.2414 38.1821 33.8294 38.4353 33.3202C38.6886 32.811 38.9062 32.3801 38.9189 32.3628C38.9316 32.3454 39.2924 31.6352 39.7207 30.7844C40.1489 29.9337 40.6613 28.9178 40.8591 28.5269L41.2189 27.816L42.6027 27.8078L43.9863 27.7996L44.0011 27.8709C44.0245 27.984 44.0737 28.3094 44.1577 28.9053C44.2365 29.4639 44.3077 29.954 44.5661 31.7313C44.6439 32.2696 44.7438 32.9587 44.7872 33.2627C44.8307 33.5666 44.877 33.8489 44.8899 33.8901C44.9095 33.9527 44.9606 33.861 45.1989 33.3376C45.3556 32.9925 45.8179 31.9784 46.2258 31.084C46.6341 30.1896 47.1051 29.1524 47.2732 28.7791C47.4413 28.4056 47.65 27.9474 47.737 27.7608L47.8946 27.4213H50.071H52.2475V27.4938C52.2475 27.5337 52.1229 27.8143 51.971 28.1174C51.8191 28.4205 50.9159 30.2315 49.9645 32.1417C49.0127 34.0521 48.0407 35.9986 47.8043 36.4675C47.5679 36.9364 47.0349 38.0056 46.6193 38.8435L45.8638 40.367H44.2069H42.5498L42.5348 40.296C42.5266 40.2569 42.4834 39.9762 42.4389 39.6723C42.3944 39.3684 42.3378 38.9848 42.3131 38.8198C42.2884 38.6549 42.2261 38.2286 42.1745 37.8726C42.1231 37.5166 42.0239 36.8417 41.9541 36.3728C41.8844 35.9039 41.792 35.2716 41.7487 34.9677C41.7055 34.6638 41.6601 34.3838 41.6479 34.3454C41.6299 34.2888 41.5652 34.3958 41.3043 34.9137C41.1276 35.2647 40.8171 35.8786 40.6143 36.278C40.4115 36.6775 40.0114 37.4661 39.7252 38.0305C39.439 38.5948 39.057 39.3479 38.8764 39.7039L38.548 40.3512L36.89 40.3594C35.3306 40.3671 35.2311 40.3643 35.2165 40.312C35.2079 40.2815 35.1793 40.1144 35.1529 39.9407C35.1265 39.7671 35.0694 39.3976 35.026 39.1198C34.9826 38.8419 34.8687 38.1102 34.773 37.4937C34.6772 36.8772 34.5498 36.0602 34.4897 35.6781C34.4298 35.2961 34.3464 34.7633 34.3045 34.4941C34.2225 33.9666 34.1059 33.2212 33.9291 32.0944C33.8679 31.7036 33.769 31.0714 33.7095 30.6893C33.65 30.3072 33.5518 29.6821 33.4913 29.3C33.4307 28.918 33.3537 28.4207 33.32 28.1949C33.2863 27.9691 33.2502 27.7418 33.2397 27.6897C33.2293 27.6376 33.2355 27.5559 33.2535 27.5081L33.2863 27.4213H35.2875C36.3882 27.4213 37.2956 27.4325 37.304 27.4462ZM68.4367 27.4924C68.4453 27.5314 68.4806 27.8902 68.5155 28.2896C68.5761 28.9882 68.6253 29.5222 68.8293 31.6839C69.0122 33.6199 69.0499 34.0058 69.0666 34.1119L69.0843 34.2191L69.1383 34.1276C69.1684 34.0774 69.4788 33.4679 69.8284 32.7733C70.178 32.0786 70.6585 31.1266 70.8964 30.6578C71.1337 30.1889 71.5535 29.3577 71.8291 28.8106L72.3297 27.816L73.7238 27.8078C74.7063 27.802 75.118 27.8096 75.118 27.8337C75.118 27.864 75.2498 28.7806 75.4762 30.3262C75.5182 30.6127 75.6027 31.1953 75.6644 31.6208C75.726 32.0462 75.8177 32.6785 75.8678 33.0258C75.9184 33.3732 75.9691 33.7259 75.9805 33.8097C75.992 33.8935 76.013 33.9503 76.0269 33.936C76.0517 33.9106 76.3244 33.3153 77.9636 29.7105C78.3977 28.7553 78.8008 27.8703 78.8596 27.7437C78.9183 27.6172 78.9661 27.5002 78.9661 27.4839C78.9661 27.4675 78.9976 27.4463 79.0363 27.4369C79.075 27.4274 80.0641 27.4236 81.2343 27.4284L83.362 27.4371L83.3539 27.5117C83.3463 27.5813 82.3567 29.5944 81.0623 32.1734C80.7576 32.7811 79.7226 34.8556 78.7626 36.7832C77.8026 38.7109 77.0031 40.3059 76.9864 40.3278C76.962 40.3591 76.6033 40.3658 75.3104 40.3594L73.6656 40.3512L73.6421 40.2407C73.6292 40.1799 73.5681 39.7821 73.506 39.3566C73.4439 38.9311 73.3522 38.306 73.3021 37.9673C73.2515 37.6287 73.1607 37.0106 73.1001 36.5938C73.0389 36.177 72.9553 35.6087 72.9143 35.3308C72.8727 35.053 72.8216 34.7008 72.8001 34.5482C72.7786 34.3957 72.7509 34.2821 72.739 34.2957C72.7266 34.3093 72.4878 34.7751 72.2079 35.3308C71.9285 35.8866 71.6328 36.4691 71.5512 36.6254C71.4695 36.7817 71.1299 37.4495 70.7965 38.1094C70.4632 38.7693 70.0706 39.5437 69.9244 39.8302L69.6584 40.3512L68.0178 40.3594C67.1151 40.3639 66.3667 40.3568 66.3538 40.3436C66.3313 40.3204 66.295 40.1055 66.0605 38.5988C65.9999 38.2081 65.9153 37.6681 65.8728 37.399C65.8298 37.1298 65.7386 36.5472 65.6694 36.1044C65.6006 35.6615 65.5094 35.079 65.4673 34.8098C65.3112 33.8099 65.1665 32.8796 65.059 32.1891C64.9983 31.7984 64.9143 31.2584 64.8718 30.9893C64.8293 30.7201 64.7457 30.1873 64.6855 29.8052C64.6258 29.4232 64.5269 28.7961 64.4658 28.4116C64.3459 27.654 64.3354 27.5171 64.3927 27.4592C64.4214 27.4305 64.9157 27.4213 66.4259 27.4213H68.4214L68.4367 27.4924ZM87.6324 27.4759C87.6324 27.506 87.5321 28.1344 87.4098 28.8726L87.1872 30.2146L86.4593 32.7885L85.731 35.3624L84.27 35.3706L82.8094 35.3788L82.8295 35.0548C82.841 34.8767 82.8706 34.4467 82.8954 34.0994C82.9202 33.7521 82.968 33.0843 83.0014 32.6154C83.0349 32.1465 83.0845 31.4361 83.1113 31.0366C83.1509 30.4482 83.2025 30.0497 83.383 28.9369C83.5053 28.1815 83.6176 27.5314 83.6314 27.4924L83.6577 27.4213H85.645C87.5077 27.4213 87.6324 27.4247 87.6324 27.4759ZM57.2806 30.9409C56.867 31.0092 56.6435 31.0759 56.3273 31.225C55.9366 31.4093 55.7221 31.5574 55.4127 31.8562C54.8959 32.3552 54.5391 33.0534 54.403 33.831C54.3385 34.198 54.3547 34.8975 54.434 35.2045C54.5477 35.6417 54.723 35.9579 55.0129 36.2465C55.3038 36.5364 55.5736 36.6883 56.002 36.8039C56.355 36.8992 57.0977 36.9069 57.5036 36.8194C58.466 36.612 59.2722 36.0148 59.7484 35.1572C60.1587 34.4183 60.3153 33.3447 60.1224 32.5971C59.8936 31.7125 59.3291 31.1576 58.4679 30.9715C58.1427 30.9011 57.6054 30.8873 57.2806 30.9409ZM84.5193 36.3254C85.7859 36.7292 86.3132 38.1318 85.6727 39.3918C85.3795 39.9679 84.8799 40.3744 84.2318 40.564C84.0288 40.6233 83.9165 40.6349 83.565 40.6326C83.1982 40.6301 83.1098 40.6189 82.8925 40.5469C81.7701 40.175 81.2166 39.0073 81.6097 37.8406C81.7362 37.4661 81.8919 37.2182 82.1852 36.9245C82.5324 36.5775 82.9226 36.3668 83.4112 36.2631C83.6529 36.2117 84.2724 36.2466 84.5193 36.3254Z" fill="white"/>
</svg>
