<svg width="67" height="67" viewBox="0 0 67 67" fill="none" xmlns="http://www.w3.org/2000/svg">
<path d="M33.5 66C51.4493 66 66 51.4493 66 33.5C66 15.5507 51.4493 1 33.5 1C15.5507 1 1 15.5507 1 33.5C1 51.4493 15.5507 66 33.5 66Z" stroke="white" stroke-width="2" stroke-miterlimit="10"/>
<path d="M39.7821 32.2563H37.2751V15.8623H44.6719V27.3633C44.6719 28.6604 44.1568 29.9045 43.2399 30.822C42.323 31.7395 41.0793 32.2554 39.7821 32.2563Z" fill="white"/>
<path d="M24.8368 32.2563H22.3298V15.8623H29.7266V27.3633C29.7266 28.661 29.2111 29.9055 28.2934 30.8232C27.3758 31.7408 26.1313 32.2563 24.8336 32.2563H24.8368Z" fill="white"/>
<path d="M5.64062 34.5799C5.64062 34.5799 8.45205 35.6469 12.3174 33.8173" stroke="white" stroke-width="2.96072" stroke-miterlimit="10" stroke-linecap="round"/>
<path d="M61.3642 34.5799C61.3642 34.5799 58.5528 35.6469 54.6875 33.8173" stroke="white" stroke-width="2.96072" stroke-miterlimit="10" stroke-linecap="round"/>
<path d="M57.9225 34.8055C57.9225 34.8055 51.1378 58.6748 33.4968 58.6748C15.8558 58.6748 9.05469 34.7826 9.05469 34.7826" stroke="white" stroke-width="2" stroke-miterlimit="10" stroke-linecap="round"/>
</svg>
