<svg width="559" height="255" viewBox="0 0 559 255" fill="none" xmlns="http://www.w3.org/2000/svg">
<path d="M292.03 18.5218V18.5223V67.8428C292.03 67.8428 292.03 67.8429 292.03 67.843C292.029 70.1 292.473 72.335 293.336 74.4204C294.199 76.5059 295.465 78.4009 297.061 79.9972C298.656 81.5935 300.551 82.8597 302.636 83.7237C304.721 84.5876 306.956 85.0323 309.213 85.0323L366.917 85.0323C366.918 85.0323 366.918 85.0323 366.919 85.0323C367.218 85.034 367.509 85.124 367.757 85.2912C368.005 85.4586 368.197 85.6958 368.31 85.9728C368.423 86.2498 368.452 86.5541 368.392 86.8472C368.332 87.1398 368.187 87.4082 367.974 87.6184C367.974 87.6187 367.974 87.619 367.973 87.6193L287.329 166.508C287.328 166.508 287.328 166.508 287.328 166.509C287.044 166.782 286.665 166.936 286.27 166.936H218.23C213.673 166.936 209.302 168.746 206.08 171.969C202.857 175.191 201.047 179.562 201.047 184.119V236.32C201.047 240.877 202.857 245.248 206.08 248.47L206.433 248.117L206.08 248.47C209.302 251.693 213.673 253.503 218.23 253.503H270.405C274.963 253.503 279.333 251.693 282.556 248.47C285.778 245.248 287.588 240.877 287.588 236.32V172.196C287.59 171.796 287.749 171.414 288.031 171.132C288.314 170.849 288.696 170.69 289.095 170.689H543.994C545.769 170.689 547.526 170.339 549.166 169.66C550.805 168.98 552.295 167.985 553.549 166.729C554.804 165.474 555.799 163.984 556.478 162.344C557.156 160.704 557.505 158.946 557.504 157.172V97.664C557.505 95.8895 557.156 94.1319 556.478 92.492C555.799 90.8521 554.804 89.3619 553.549 88.1067C552.295 86.8514 550.805 85.8557 549.166 85.1763C547.526 84.4969 545.769 84.1472 543.994 84.1472H374.924C374.525 84.146 374.142 83.9868 373.86 83.7044C373.578 83.4221 373.419 83.0394 373.417 82.6401V18.5223V18.5216C373.41 13.9729 371.601 9.6125 368.385 6.39551C365.169 3.17852 360.809 1.36728 356.261 1.35858H356.26L309.187 1.35858L309.187 1.35858C304.637 1.36555 300.277 3.17625 297.061 6.39365C293.844 9.61105 292.035 13.9725 292.03 18.5218Z" stroke="#B7B7B7"/>
<path d="M187.861 84.358H135.283C126.023 84.358 118.516 91.8652 118.516 101.126V153.704C118.516 162.964 126.023 170.472 135.283 170.472H187.861C197.122 170.472 204.629 162.964 204.629 153.704V101.126C204.629 91.8652 197.122 84.358 187.861 84.358Z" stroke="#B7B7B7"/>
</svg>
